<?xml version="1.0" standalone="no"?><!DOCTYPE svg PUBLIC "-//W3C//DTD SVG 1.1//EN" "http://www.w3.org/Graphics/SVG/1.1/DTD/svg11.dtd"><svg t="1494573160047" class="icon" style="" viewBox="0 0 1025 1024" version="1.1" xmlns="http://www.w3.org/2000/svg" p-id="6776" xmlns:xlink="http://www.w3.org/1999/xlink" width="24.0234375" height="24"><defs><style type="text/css"></style></defs><path d="M770.56 565.76c0-140.8-115.2-256-256-256-74.24 0-140.8 30.72-186.88 81.92l61.44 38.4c33.28-30.72 76.8-48.64 125.44-48.64 102.4 0 186.88 84.48 186.88 186.88l-66.56 0c-15.36 0-17.92 7.68-10.24 20.48l81.92 99.84c10.24 10.24 23.04 10.24 33.28 0l84.48-99.84c10.24-10.24 5.12-20.48-10.24-20.48L770.56 568.32zM258.56 565.76c0 140.8 115.2 256 256 256 58.88 0 112.64-20.48 156.16-51.2l-64-40.96c-25.6 15.36-56.32 23.04-89.6 23.04-102.4 0-186.88-84.48-186.88-186.88l66.56 0c15.36 0 17.92-7.68 10.24-20.48l-84.48-99.84c-10.24-10.24-23.04-10.24-33.28 0l-84.48 99.84c-10.24 10.24-5.12 20.48 10.24 20.48L258.56 565.76zM0 368.64c0-84.48 69.12-153.6 153.6-153.6l28.16 0c28.16 0 61.44-20.48 74.24-46.08l23.04-48.64c12.8-25.6 46.08-46.08 74.24-46.08l317.44 0c28.16 0 61.44 20.48 74.24 46.08l23.04 48.64c12.8 25.6 46.08 46.08 74.24 46.08l28.16 0c84.48 0 153.6 69.12 153.6 153.6l0 437.76c0 84.48-69.12 153.6-153.6 153.6l-716.8 0c-84.48 0-153.6-69.12-153.6-153.6L0 368.64z" p-id="6777" fill="#ffffff"></path></svg>