<?xml version="1.0" standalone="no"?><!DOCTYPE svg PUBLIC "-//W3C//DTD SVG 1.1//EN" "http://www.w3.org/Graphics/SVG/1.1/DTD/svg11.dtd"><svg t="1494485703540" class="icon" style="" viewBox="0 0 1024 1024" version="1.1" xmlns="http://www.w3.org/2000/svg" p-id="5766" xmlns:xlink="http://www.w3.org/1999/xlink" width="29" height="29"><defs><style type="text/css"></style></defs><path d="M832 192c70.656 0 128 57.408 128 128v384a128 128 0 0 1-128 128H192c-70.592 0-128-57.344-128-128V320c0-70.592 57.408-128 128-128h640m0-64H192a192 192 0 0 0-192 192v384a192 192 0 0 0 192 192h640a192 192 0 0 0 192-192V320a192 192 0 0 0-192-192z" fill="#999999" p-id="5767"></path><path d="M512 512a32 32 0 0 1-32 32h-320a32 32 0 0 1 0-64h320A32 32 0 0 1 512 512zM448 640c0 17.6-11.968 38.4-26.688 38.4H154.624c-14.72 0-26.688-14.4-26.688-32 0-17.536 11.968-32 26.688-32h266.688c14.72 0 26.688 8 26.688 25.6zM832 512a32 32 0 0 1-32 32h-128a32 32 0 0 1 0-64h128a32 32 0 0 1 32 32zM64 340.032h896v70.016H64z" fill="#999999" p-id="5768"></path></svg>