<?xml version="1.0" standalone="no"?><!DOCTYPE svg PUBLIC "-//W3C//DTD SVG 1.1//EN" "http://www.w3.org/Graphics/SVG/1.1/DTD/svg11.dtd"><svg t="1494243158624" class="icon" style="" viewBox="0 0 1024 1024" version="1.1" xmlns="http://www.w3.org/2000/svg" p-id="16499" xmlns:xlink="http://www.w3.org/1999/xlink" width="32" height="32"><defs><style type="text/css"></style></defs><path d="M121.7444 391.7568c-65.493 0-118.5894 53.0729-118.5894 118.5894 0 65.493 53.0964 118.5659 118.5894 118.5659s118.5894-53.0729 118.5894-118.5659C240.3338 444.8307 187.2374 391.7568 121.7444 391.7568zM499.9741 391.7568c-65.493 0-118.5894 53.0729-118.5894 118.5894 0 65.493 53.0964 118.5659 118.5894 118.5659s118.5894-53.0729 118.5894-118.5659C618.5636 444.8307 565.4671 391.7568 499.9741 391.7568zM901.845 391.7568c-65.493 0-118.5905 53.0729-118.5905 118.5894 0 65.493 53.0975 118.5659 118.5905 118.5659s118.5894-53.0729 118.5894-118.5659C1020.4334 444.8307 967.338 391.7568 901.845 391.7568z" p-id="16500" fill="#ffffff"></path></svg>