<?xml version="1.0" standalone="no"?><!DOCTYPE svg PUBLIC "-//W3C//DTD SVG 1.1//EN" "http://www.w3.org/Graphics/SVG/1.1/DTD/svg11.dtd"><svg t="1492071733875" class="icon" style="" viewBox="0 0 1024 1024" version="1.1" xmlns="http://www.w3.org/2000/svg" p-id="7489" xmlns:xlink="http://www.w3.org/1999/xlink" width="20" height="20"><defs><style type="text/css"></style></defs><path d="M932.798858 642.978077c-3.741207-15.208377-36.921911-112.740714-56.638975-175.469384-26.985608-85.85232-52.591799-172.151825-77.608565-258.601756-6.729262-23.254633-20.113083-33.835619-43.217291-39.35124-52.259224-12.477172-182.53736-44.578288-192.686511-38.693254-10.149151 5.884011-15.154141 34.382065-18.219967 53.3163-9.752108 60.229756-20.083407 120.366392-35.918048 180.542936-10.114358-60.166311-20.465101-120.293737-30.204929-180.520423-3.061732-18.936281-10.999518-47.917336-18.147312-53.338812-7.147794-5.421476-21.476127 0-40.35408 3.496637-18.877953 3.495614-94.031607 22.512736-143.652747 32.709983-31.992645 6.573719-46.968731 22.596647-55.82647 53.125965-21.478174 74.033134-63.696718 202.706725-96.137571 305.785382C78.05268 672.570046 79.051427 679.922501 86.37523 685.509752c16.154935 12.3247 93.838202 44.468794 141.54576 64.960501 15.32094 6.580882 36.232203-4.491291 46.044686-25.192775 0 33.590026-0.506537 74.594929-2.210341 103.32425-1.597381 26.935466 11.044544 41.993416 35.080983 48.26526 28.753881 7.502881 74.192769 13.621229 116.360148 17.58961 36.744879 3.457752 66.419735-1.983167 82.133625-20.521383 1.904373-2.862187 3.900843-5.862521 6.03239-9.06547 4.465708 6.684236 8.333806 12.474103 11.945053 17.880229 13.243629 10.959609 38.858006 14.389732 99.994412 8.691963 38.593993-3.596921 56.529481-5.633301 84.330664-11.333116 31.18321-6.393617 46.235021-23.911596 43.499723-57.408501-2.177596-26.670429-0.438998-53.661154-0.438998-88.840374 22.677489 27.445072 43.321668 18.378579 63.764256 8.959046 40.800241-18.799158 115.919103-47.684022 121.976052-57.308217S936.540066 658.186454 932.798858 642.978077zM887.770316 680.444387c-27.015284 10.855232-54.021358 21.918195-80.20674 34.595936-19.469424 9.425673-28.816303 5.539156-34.015721-15.925714-9.210779-38.025035-20.324908-75.593675-30.887474-113.285113-3.955078-14.114462-8.594749-28.036543-18.139126-41.37227 0 58.727543 0.005117 117.456109-0.002047 176.183651-0.004093 33.156144-0.784876 66.335824 0.2415 99.459223 0.621147 20.043499-8.764618 29.769001-27.045983 33.212426-43.485397 8.191566-87.266529 12.982686-131.60434 13.512758-15.415085 0.184195-29.484521 0.496304-53.616128-64.872496-31.640628 66.500577-41.040718 70.224388-107.449197 62.881143-25.908066-2.865257-51.642171-7.308453-77.459163-11.004635-21.490453-3.077082-30.083156-14.640442-29.820166-37.033451 0.954745-81.371262 0.342808-162.760944 0.322341-244.143463-0.002047-9.503445 0-19.007913-5.79703-29.121248-14.282285 50.861388-29.740348 101.43318-42.334177 152.709007-6.02011 24.512277-16.104793 28.753881-37.753859 18.11559-25.214265-12.390191-51.188846-23.318078-77.226872-33.913391-14.951527-6.083555-18.705014-14.016225-13.782911-30.153764 43.638893-143.085836 86.459141-286.420335 129.464607-429.698552 3.714602-12.375865 9.970072-20.451798 24.090675-23.379477 49.128931-10.18292 98.151437-21.004383 146.866952-32.994462 18.323321-4.50971 24.472368 0.023536 27.476795 18.848277 17.08205 107.021455 35.479049 213.833133 53.558823 320.69393 1.983167 11.725042 4.793166 23.309892 11.118222 35.034934 16.213263-95.813183 32.429597-191.625342 48.638767-287.438525 4.016477-23.738657 8.895601-47.376007 11.712763-71.255881 1.917676-16.252149 8.804527-20.13048 24.064069-16.551978 50.805106 11.912307 101.738126 23.301705 152.751986 34.287921 13.09218 2.819209 17.774829 11.808954 21.067828 22.754237 43.092447 143.250588 85.911672 286.584064 129.543402 429.6699C906.45077 666.326854 902.792451 674.407903 887.770316 680.444387z" p-id="7490" fill="#999999"></path><path d="M512.039909 627.184369m-13.218046 0a12.917 12.917 0 1 0 26.436092 0 12.917 12.917 0 1 0-26.436092 0Z" p-id="7491" fill="#999999"></path><path d="M511.691985 725.277478m-13.218046 0a12.917 12.917 0 1 0 26.436092 0 12.917 12.917 0 1 0-26.436092 0Z" p-id="7492" fill="#999999"></path></svg>