<?xml version="1.0" standalone="no"?><!DOCTYPE svg PUBLIC "-//W3C//DTD SVG 1.1//EN" "http://www.w3.org/Graphics/SVG/1.1/DTD/svg11.dtd"><svg t="1492071700769" class="icon" style="" viewBox="0 0 1024 1024" version="1.1" xmlns="http://www.w3.org/2000/svg" p-id="6974" xmlns:xlink="http://www.w3.org/1999/xlink" width="20" height="20"><defs><style type="text/css"></style></defs><path d="M865.52381 853.333333c-12.190476 0-97.52381 0-97.52381 0l0 109.714286L768 975.238095l0 12.190476c0 19.504762-17.066667 36.571429-36.571429 36.571429l-438.857143 0C273.066667 1024 256 1006.933333 256 987.428571L256 975.238095l0-12.190476L256 853.333333c0 0-90.209524 0-97.52381 0s-24.380952-7.314286-24.380952-24.380952C134.095238 811.885714 158.47619 236.495238 158.47619 219.428571c0-17.066667 39.009524-73.142857 73.142857-97.52381s97.52381-48.761905 97.52381-48.761905l97.52381-73.142857 170.666667 0 97.52381 73.142857c0 0 70.704762 26.819048 97.52381 48.761905 26.819048 21.942857 73.142857 97.52381 73.142857 97.52381s24.380952 592.457143 24.380952 609.52381C889.904762 846.019048 877.714286 853.333333 865.52381 853.333333zM329.142857 126.780952C314.514286 129.219048 297.447619 136.533333 280.380952 146.285714 243.809524 168.228571 207.238095 209.67619 207.238095 219.428571c0 9.752381-24.380952 548.571429-24.380952 560.761905 0 12.190476 9.752381 24.380952 24.380952 24.380952s48.761905 0 48.761905 0 0-336.457143 0-365.714286 48.761905-24.380952 48.761905 0 0 494.933333 0 512c0 17.066667 7.314286 24.380952 24.380952 24.380952 4.87619 0 46.32381 0 97.52381 0L426.666667 536.380952l48.761905-97.52381-146.285714-146.285714 48.761905-73.142857L329.142857 195.047619 329.142857 126.780952zM402.285714 73.142857l-24.380952 24.380952 0 0 0 73.142857 48.761905 48.761905-48.761905 73.142857 121.904762 97.52381-24.380952-97.52381L402.285714 73.142857zM436.419048 48.761905 499.809524 219.428571l24.380952 0 63.390476-170.666667L436.419048 48.761905zM646.095238 87.771429c-9.752381-7.314286-19.504762-14.628571-29.257143-21.942857L621.714286 73.142857l-97.52381 219.428571 0 121.904762 121.904762-121.904762-48.761905-73.142857L597.333333 195.047619l48.761905-24.380952L646.095238 87.771429zM816.761905 219.428571c-9.752381-53.638095-114.590476-97.52381-121.904762-97.52381l0 48.761905-48.761905 48.761905 48.761905 48.761905 0 24.380952-219.428571 243.809524 0 438.857143c97.52381 0 209.67619 0 219.428571 0 14.628571 0 24.380952-4.87619 24.380952-24.380952 0-19.504762 0-485.180952 0-512 0-26.819048 48.761905-24.380952 48.761905 0s0 365.714286 0 365.714286 41.447619 0 48.761905 0c7.314286 0 24.380952 0 24.380952-24.380952C841.142857 755.809524 826.514286 273.066667 816.761905 219.428571zM524.190476 877.714286c-14.628571 0-24.380952-9.752381-24.380952-24.380952 0-14.628571 9.752381-24.380952 24.380952-24.380952 14.628571 0 24.380952 9.752381 24.380952 24.380952C548.571429 867.961905 538.819048 877.714286 524.190476 877.714286zM524.190476 755.809524c-14.628571 0-24.380952-9.752381-24.380952-24.380952 0-14.628571 9.752381-24.380952 24.380952-24.380952 14.628571 0 24.380952 9.752381 24.380952 24.380952C548.571429 746.057143 538.819048 755.809524 524.190476 755.809524zM524.190476 633.904762c-14.628571 0-24.380952-9.752381-24.380952-24.380952 0-14.628571 9.752381-24.380952 24.380952-24.380952 14.628571 0 24.380952 9.752381 24.380952 24.380952C548.571429 624.152381 538.819048 633.904762 524.190476 633.904762z" p-id="6975" fill="#999999"></path></svg>