<?xml version="1.0" standalone="no"?><!DOCTYPE svg PUBLIC "-//W3C//DTD SVG 1.1//EN" "http://www.w3.org/Graphics/SVG/1.1/DTD/svg11.dtd"><svg t="1492073028105" class="icon" style="" viewBox="0 0 1024 1024" version="1.1" xmlns="http://www.w3.org/2000/svg" p-id="14186" xmlns:xlink="http://www.w3.org/1999/xlink" width="20" height="20"><defs><style type="text/css"></style></defs><path d="M989.824 371.328l-149.12-131.072a89.216 89.216 0 0 0-58.816-22.912c-21.568 0-40.896 8.448-54.464 23.744-20.096 23.04-22.08 56.512-7.68 84.8L568.192 489.984a114.496 114.496 0 0 0-6.72-0.192H140.736c-75.776 0-137.344 61.568-137.344 137.344s61.568 137.344 137.344 137.344h365.184a147.584 147.584 0 0 0 96.64 38.208c32.96 0 62.144-12.288 83.008-34.944l242.944-262.976c6.656 1.728 13.632 2.688 20.48 2.688 21.632 0 40.96-8.384 54.528-23.744 27.328-31.232 21.248-81.6-13.696-112.384z m-319.104 382.72c-17.792 19.264-43.392 29.44-72.128 28.16a127.04 127.04 0 0 1-81.216-34.496l-3.648-3.392H140.736c-64.576 0-117.184-52.544-117.184-117.184s52.608-117.184 117.184-117.184h420.736c3.392 0 6.656 0.192 9.856 0.512l4.864 0.384 154.88-167.744c3.136 3.584 6.4 7.04 9.92 10.304l149.056 131.136c5.632 4.928 11.712 9.024 17.984 12.352l-237.312 257.152z m317.504-283.648a51.2 51.2 0 0 1-39.232 16.832c-16.192 0-32.32-6.336-45.504-17.856l-149.056-131.072c-26.56-23.424-31.872-61.056-11.84-83.904a51.136 51.136 0 0 1 39.168-16.896c16.32 0 32.448 6.4 45.504 17.856l149.12 131.072c26.688 23.424 31.936 61.12 11.84 83.968z" fill="#999999" p-id="14187"></path><path d="M813.952 267.584a4.992 4.992 0 0 0-7.04 0.512l-46.976 53.824a5.12 5.12 0 0 0 3.84 8.384c1.344 0 2.88-0.64 3.904-1.728l46.848-53.824c1.664-2.176 1.536-5.376-0.576-7.168zM853.504 302.016a5.056 5.056 0 0 0-7.104 0.512l-47.04 53.824a5.12 5.12 0 0 0 0.512 7.104 5.248 5.248 0 0 0 3.392 1.216 4.864 4.864 0 0 0 3.776-1.728l46.912-53.824a5.12 5.12 0 0 0-0.448-7.104zM892.992 336.512a5.056 5.056 0 0 0-7.104 0.512l-46.848 53.824a5.056 5.056 0 0 0 0.512 7.104 5.12 5.12 0 0 0 3.328 1.216 5.248 5.248 0 0 0 3.84-1.728l46.912-53.824a5.184 5.184 0 0 0-0.64-7.104zM932.48 370.944a4.992 4.992 0 0 0-7.04 0.512l-46.912 53.76a5.12 5.12 0 0 0 0.512 7.104 4.992 4.992 0 0 0 3.392 1.216 4.864 4.864 0 0 0 3.776-1.728l46.912-53.824a4.992 4.992 0 0 0-0.64-7.04zM964.928 405.952l-46.912 53.824a4.992 4.992 0 0 0 0.512 7.104 5.056 5.056 0 0 0 3.264 1.216 5.312 5.312 0 0 0 3.904-1.664l46.848-53.824a4.992 4.992 0 0 0-0.512-7.104 4.992 4.992 0 0 0-7.104 0.448z" fill="#999999" p-id="14188"></path></svg>