<?xml version="1.0" standalone="no"?><!DOCTYPE svg PUBLIC "-//W3C//DTD SVG 1.1//EN" "http://www.w3.org/Graphics/SVG/1.1/DTD/svg11.dtd"><svg t="1492074095033" class="icon" style="" viewBox="0 0 1024 1024" version="1.1" xmlns="http://www.w3.org/2000/svg" p-id="19677" xmlns:xlink="http://www.w3.org/1999/xlink" width="20" height="20"><defs><style type="text/css"></style></defs><path d="M368.616727 621.777455H133.352727a20.695273 20.695273 0 0 1-15.330909-6.813091 20.765091 20.765091 0 0 1-5.218909-15.970909C146.018909 277.178182 344.064 26.548364 352.477091 16.046545a20.654545 20.654545 0 0 1 22.964364-6.580363 20.666182 20.666182 0 0 1 13.847272 19.490909v572.16c0 11.409455-9.250909 20.654545-20.672 20.654545z m-212.043636-41.309091h191.371636V93.649455C290.909091 179.642182 184.727273 363.938909 156.573091 580.468364z m140.689454 432.436363c-36.904727 0-66.949818-29.998545-66.949818-66.868363v-344.913455a20.654545 20.654545 0 0 1 20.672-20.654545 20.654545 20.654545 0 0 1 20.672 20.654545V946.036364a25.611636 25.611636 0 0 0 51.211637 0v-344.913455a20.654545 20.654545 0 0 1 20.672-20.654545 20.654545 20.654545 0 0 1 20.666181 20.654545V946.036364c0 36.869818-30.039273 66.868364-66.944 66.868363z m536.192-385.792H543.784727c-42.955636 0-77.905455-34.909091-77.905454-77.824V80.791273c0-42.926545 34.949818-77.858909 77.905454-77.858909h289.669818c42.920727 0 77.847273 34.932364 77.847273 77.858909v468.497454c0 42.909091-34.926545 77.824-77.847273 77.824zM543.784727 44.247273a36.590545 36.590545 0 0 0-36.561454 36.538182V549.294545c0 20.130909 16.389818 36.514909 36.561454 36.51491h289.669818a36.538182 36.538182 0 0 0 36.497455-36.51491V80.791273c0-20.142545-16.354909-36.544-36.497455-36.544H543.784727z m144.849455 976.814545c-36.928 0-66.973091-30.039273-66.973091-66.955636v-344.919273c0-11.403636 9.250909-20.654545 20.672-20.654545a20.666182 20.666182 0 0 1 20.666182 20.654545v344.919273a25.664 25.664 0 0 0 25.634909 25.646545c14.097455 0 25.541818-11.514182 25.541818-25.646545v-344.919273c0-11.403636 9.250909-20.654545 20.672-20.654545a20.660364 20.660364 0 0 1 20.672 20.654545v344.919273c0 36.916364-30.010182 66.961455-66.885818 66.961454zM615.296 450.984727a20.654545 20.654545 0 0 1-20.672-20.654545V165.317818a20.654545 20.654545 0 0 1 20.672-20.654545 20.654545 20.654545 0 0 1 20.672 20.654545v265.006546a20.654545 20.654545 0 0 1-20.672 20.654545z m143.016727 0a20.654545 20.654545 0 0 1-20.666182-20.654545V165.317818a20.654545 20.654545 0 0 1 20.666182-20.654545 20.654545 20.654545 0 0 1 20.672 20.654545v265.006546a20.654545 20.654545 0 0 1-20.672 20.654545z" fill="#999999" p-id="19678"></path></svg>