<?xml version="1.0" standalone="no"?><!DOCTYPE svg PUBLIC "-//W3C//DTD SVG 1.1//EN" "http://www.w3.org/Graphics/SVG/1.1/DTD/svg11.dtd"><svg t="1492074260003" class="icon" style="" viewBox="0 0 1024 1024" version="1.1" xmlns="http://www.w3.org/2000/svg" p-id="21519" xmlns:xlink="http://www.w3.org/1999/xlink" width="20" height="20"><defs><style type="text/css"></style></defs><path d="M858.673627 438.089663c-22.896476 0-44.978401 5.941316-64.926732 16.817014-45.023426-75.655074-118.955252-128.054491-204.39518-145.58168 42.640146-51.612495 6.024204-131.459031-60.388369-133.614114-68.843948-2.233877-109.715821 80.382748-65.482387 133.725654C328.46901 337.27149 225.62469 453.791274 215.85007 592.490196l-25.127284 0c-35.252899 0-63.938218-28.685319-63.938218-63.929008L126.784568 417.285848c0-19.675108-16.015765-35.690874-35.701107-35.690874L59.528791 381.594975l0 29.891797 31.555693 0c3.200902 0 5.809309 2.607384 5.809309 5.799076l0 111.276363c0 51.727105 42.0937 93.819782 93.830015 93.819782l24.429389 0c1.780553 68.547189 25.143657 133.048225 68.291362 186.92018l4.486174 5.604648 476.466716-0.194428 4.486174-5.585205c24.726148-30.757514 42.614563-65.239863 54.099129-102.280478 80.33363 21.712511 163.748435-35.532261 171.888835-118.43132C1002.660996 509.070274 938.500721 438.089663 858.673627 438.089663zM501.793544 333.799412c84.708264-8.137331 170.640402 25.39232 228.834802 87.086427L322.509275 420.885839C368.494609 372.385219 431.338912 339.816452 501.793544 333.799412 509.694491 333.040119 431.338912 339.816452 501.793544 333.799412zM526.275121 205.513654c53.073776 0 71.39198 74.132394 23.430642 98.179067-15.515369-1.202385-31.181163-1.254573-46.696532-0.019443C455.30986 279.744285 473.1686 205.513654 526.275121 205.513654zM749.956553 784.820596l-447.558315 0.194428c-74.318636-97.559966-76.102259-234.678904-4.51278-334.23841l457.504852 0c47.65537 66.968228 64.276932 153.720034 43.379996 233.42126l-0.057305 0.217964C789.386588 720.93252 772.999362 754.673995 749.956553 784.820596zM858.673627 681.796174c-9.4093 0-18.701944-1.225921-27.751041-3.65832 13.895475-65.738213 5.678326-136.435369-23.14821-197.156312 61.963237-33.895995 141.55804 3.387144 155.726737 72.304769C976.925868 618.584504 925.284721 681.796174 858.673627 681.796174z" p-id="21520" fill="#999999"></path></svg>