<?xml version="1.0" standalone="no"?><!DOCTYPE svg PUBLIC "-//W3C//DTD SVG 1.1//EN" "http://www.w3.org/Graphics/SVG/1.1/DTD/svg11.dtd"><svg t="1492071669650" class="icon" style="" viewBox="0 0 1026 1024" version="1.1" xmlns="http://www.w3.org/2000/svg" p-id="6158" xmlns:xlink="http://www.w3.org/1999/xlink" width="20.0390625" height="20"><defs><style type="text/css"></style></defs><path d="M977.1 157.8c0-39.9-23.1-74.3-56.5-91l0.3-0.6-4.9-1.6c-5.8-2.5-11.8-4.5-18.1-6L707.3 6.4v71.2l181.6 49.3c11.9 5.3 20.3 17.2 20.3 31l49.7 231.6c0 18.6-15.3 33.9-33.9 33.9h-44.7v-65.5h-67.9v561.5c0 18.6-15.3 33.9-33.9 33.9H245.9c-18.6 0-29.8-15.3-29.8-33.9V353.8h-67.9v65.5h-46.4c-18.6 0-33.9-15.3-33.9-33.9l49.7-231.6c0-13.4 8-25 19.3-30.5l179.4-45.6V6.4L130.6 54.1c-7.6 1.6-14.9 4-21.7 7.2l-1.7 0.6 0.1 0.2c-34.1 16.5-57.6 51.3-57.6 91.7L0 385.3c0 56.2 45.6 101.8 101.8 101.8h46.4v432.2c0 56.2 41.5 101.8 97.7 101.8h532.6c56.2 0 101.8-45.6 101.8-101.8v-428H925c56.2 0 101.8-45.6 101.8-101.8l-49.7-231.7z" fill="#999999" p-id="6159"></path><path d="M705.8 6.5c-36.3 72-110 121.4-194.9 121.4S352.3 78.5 316 6.5l-65.5 16.1C295 123.5 394.9 194.1 510.9 194.1c115.5 0 215.1-70 259.9-170.2l-65-17.4z" fill="#999999" p-id="6160"></path></svg>