<?xml version="1.0" standalone="no"?><!DOCTYPE svg PUBLIC "-//W3C//DTD SVG 1.1//EN" "http://www.w3.org/Graphics/SVG/1.1/DTD/svg11.dtd"><svg t="1492073009872" class="icon" style="" viewBox="0 0 1024 1024" version="1.1" xmlns="http://www.w3.org/2000/svg" p-id="13415" xmlns:xlink="http://www.w3.org/1999/xlink" width="20" height="20"><defs><style type="text/css"></style></defs><path d="M872.19712 486.56384c-2.90816-37.87264-19.58912-250.18368-29.29152-287.27296-8.43264-32.34816-30.7456-34.85184-37.38624-34.85184-10.5984 0-21.08416 5.07392-28.76928 13.91616-9.44128 10.85952-13.65504 25.70752-11.56608 40.70912 2.98496 21.67808 12.65152 155.25888 18.05824 233.39008-177.83296 84.66432-225.07008 217.61024-229.95968 232.832-1.59744 4.9664-2.67264 9.16992-3.38944 12.83584l-74.5984 0c-0.7168-3.66592-1.79712-7.86944-3.39456-12.83584-4.8896-15.22176-52.12672-148.16768-229.95968-232.832 5.41184-78.1312 15.07328-211.712 18.05824-233.35424 2.08896-15.03744-2.1248-29.88544-11.56608-40.74496-7.68512-8.84224-18.17088-13.91616-28.76928-13.91616-6.64064 0-28.9536 2.49856-37.38624 34.85184-9.7024 37.08928-26.37824 249.40032-29.29152 287.3088-12.91264 28.88192-91.904 223.50336 67.46112 330.03008 21.75488 13.1328 46.5664 19.77344 73.8048 19.77344 29.47072 0 61.25568-8.12032 90.86976-22.77888 19.62496-5.66272 77.18912-20.43904 137.78432-18.52416 73.24672 2.01728 136.45312 27.42272 137.088 27.68384 1.28 0.52736 2.58048 0.8704 3.8912 1.1008 21.44256 7.82336 44.28288 12.5184 67.04128 12.5184 27.2384 0 52.04992-6.64064 74.55232-20.224C964.1728 710.0672 885.10976 515.4816 872.19712 486.56384zM188.88704 499.92192l1.94048-7.0144c5.26336-68.9152 20.66944-254.24896 28.39552-283.98592 0.44544-1.67936 0.93184-3.0208 1.3824-4.10624 1.12128 1.94048 2.1248 5.00224 1.56672 9.03168-4.14208 29.96224-18.62144 240.18432-19.2512 249.1392l-0.896 13.28128 12.12416 5.44768c10.55744 4.736 20.64896 9.67168 30.30528 14.75584-23.56224 38.89152-61.39904 128.73216-26.95168 269.69088C108.35456 667.58656 185.34912 507.1104 188.88704 499.92192zM265.22112 794.5472c-49.11104-152.41728-9.10848-244.40832 12.23168-279.00928 117.51424 73.856 156.24192 168.42752 160.384 189.75744l-0.0768 5.26336c0 11.38176-14.848 33.32096-43.24352 53.24288-7.51616 5.2736-15.34976 9.99424-23.36256 14.13632-2.76992 0.81408-4.47488 1.3568-4.88448 1.49504-2.72896 0.88064-5.07904 2.35008-7.05024 4.17792-21.64736 9.43104-44.11392 14.592-64.96256 14.592C284.00128 798.20288 274.27328 796.94848 265.22112 794.5472zM454.21056 760.85248c6.70208-8.15616 11.93984-16.39936 15.60576-24.51456l85.77536 0c3.79904 8.19712 9.16992 16.50688 15.8976 24.67328-14.99136-2.1248-30.97088-3.65056-47.53408-4.11136C499.51744 756.33152 475.6736 758.09792 454.21056 760.85248zM587.42784 710.5536l0-5.15072-0.0768-0.11264c4.19328-21.57568 43.72992-118.11328 164.45952-192.32256 82.03264 124.41088 26.752 247.82848 8.72448 281.39008-9.28768 2.53952-19.16928 3.84512-29.60384 3.84512C659.47648 798.20288 587.42784 738.09408 587.42784 710.5536zM816.50176 757.72928c20.1216-63.232 33.23904-163.67616-31.31392-263.52128 8.31488-4.28032 16.88576-8.46848 25.856-12.4928l12.12416-5.44768-0.896-13.28128c-0.63488-8.95488-15.11424-219.17696-19.2512-249.17504-0.55808-4.02944 0.44544-7.05024 1.56672-8.99072 0.44544 1.08032 0.93184 2.42688 1.3824 4.10624 7.72608 29.73696 23.13216 215.07072 28.39552 283.98592l1.94048 7.0144C837.15584 501.632 912.7168 658.08896 816.50176 757.72928z" p-id="13416" fill="#999999"></path></svg>