<?xml version="1.0" standalone="no"?><!DOCTYPE svg PUBLIC "-//W3C//DTD SVG 1.1//EN" "http://www.w3.org/Graphics/SVG/1.1/DTD/svg11.dtd"><svg t="1492073107556" class="icon" style="" viewBox="0 0 1024 1024" version="1.1" xmlns="http://www.w3.org/2000/svg" p-id="15322" xmlns:xlink="http://www.w3.org/1999/xlink" width="20" height="20"><defs><style type="text/css"></style></defs><path d="M266.834 1031.16c-0.455 0-0.912-0.022-1.375-0.068-6.929-0.679-12.3-6.355-12.595-13.311-5.561-130.869-62.593-397.274-64.206-404.781-8.801-37.045-11.685-154.099-11.804-159.071-2.883-142.67 56.896-333.486 59.441-341.538 1.156-3.655 3.762-6.676 7.212-8.353 3.449-1.676 7.434-1.862 11.024-0.513 81.223 30.516 174.32 45.99 276.704 45.99 135.022 0 238.58-27.476 239.611-27.754 6.842-1.843 13.975 1.725 16.606 8.301 37.647 94.107 58.864 354.417 59.749 365.451 0.607 7.584-4.965 14.261-12.537 15.019-66.134 6.621-172.573 64.711-179.263 68.396-119.438 75.589-170.335 153.929-171.669 156.016-42.587 68.95-107.133 115.305-109.86 117.246-0.487 0.346-0.994 0.659-1.52 0.941-48.399 25.825-82.785 129.561-91.951 167.354-1.533 6.314-7.186 10.678-13.568 10.678zM258.741 134.773c-13.737 46.873-56.302 202.143-53.95 318.543 0.028 1.139 2.935 119.347 11.081 153.34 0.023 0.103 0.049 0.206 0.070 0.309 2.042 9.459 43.012 200.174 58.995 340.033 17.364-43.974 45.139-97.058 83.373-118.044 6.679-4.902 64.315-48.209 101.697-108.773 0.027-0.039 0.050-0.081 0.074-0.119 2.178-3.447 54.75-85.334 180.736-164.972 0.219-0.138 0.443-0.27 0.668-0.397 4.444-2.476 103.613-57.357 176.732-70.069-4.656-52.303-23.471-246.974-52.541-332.814-31.933 7.436-121.666 25.648-234.443 25.648-99.929-0.001-191.52-14.356-272.494-42.684z" p-id="15323" fill="#999999"></path><path d="M480.352 729.543c-5.582 0.001-10.851-3.366-13.010-8.877-2.815-7.184 0.726-15.291 7.908-18.107 49.469-19.388 112.799-26.491 188.233-21.118 39.546 2.819 71.647 8.397 87.571 11.54 37.881-78.738 53.178-194.737 53.335-195.947 0.987-7.651 7.98-13.058 15.643-12.070 7.652 0.987 13.057 7.987 12.071 15.639-0.687 5.341-17.339 131.748-61.040 214.772-2.962 5.627-9.346 8.54-15.538 7.1-1.594-0.371-160.972-36.667-270.077 6.098-1.675 0.656-3.399 0.967-5.097 0.967z" p-id="15324" fill="#999999"></path><path d="M249.821 866.852c-2.63 0-5.291-0.741-7.653-2.293-6.451-4.235-8.246-12.896-4.013-19.346 0.663-1.010 67.531-102.253 171.932-207.606 61.467-62.027 123.815-113.442 185.314-152.816 77.476-49.601 153.907-80.185 227.174-90.902 7.633-1.12 14.73 4.167 15.845 11.803 1.116 7.635-4.166 14.73-11.804 15.845-157.633 23.059-302.725 140.923-396.683 235.739-102.451 103.387-167.772 202.285-168.419 203.271-2.683 4.089-7.145 6.305-11.693 6.305z" p-id="15325" fill="#999999"></path><path d="M774.47 149.22c-7.503 0-13.706-5.954-13.955-13.507-0.957-28.845-10.278-63.743-15.626-81.616-120.593 24.939-240.317 20.707-320.663 12.521-69.977-7.131-121.698-18.115-142.445-22.964-8.263 16.857-15.429 51.702-18.301 74.684-0.957 7.658-7.936 13.095-15.597 12.131-7.657-0.957-13.088-7.939-12.131-15.596 1.524-12.19 10.085-74.119 29.069-96.25 3.484-4.061 8.98-5.776 14.155-4.416 0.593 0.156 60.637 15.74 148.647 24.669 80.929 8.209 202.784 12.318 323.713-14.746 6.95-1.555 13.958 2.366 16.269 9.103 0.789 2.304 19.357 56.932 20.837 101.554 0.256 7.712-5.789 14.171-13.501 14.427-0.156 0.004-0.314 0.005-0.47 0.005z" p-id="15326" fill="#999999"></path></svg>