<?xml version="1.0" standalone="no"?><!DOCTYPE svg PUBLIC "-//W3C//DTD SVG 1.1//EN" "http://www.w3.org/Graphics/SVG/1.1/DTD/svg11.dtd"><svg t="1492073877074" class="icon" style="" viewBox="0 0 1024 1024" version="1.1" xmlns="http://www.w3.org/2000/svg" p-id="16183" xmlns:xlink="http://www.w3.org/1999/xlink" width="20" height="20"><defs><style type="text/css"></style></defs><path d="M977.127971 422.195671c-17.22429-10.766205-41.98523-4.306072-62.441121 3.228531l0-29.065989c0-17.225313 4.306072-33.372062 12.919241-48.444339l17.22429-32.298614c4.306072-8.612145 7.535627-18.300808 8.614192-29.067013-1.078565-79.665411-142.106532-129.187291-203.472158-129.187291L616.479051 157.360957c11.841699-26.913976 22.608927-61.364603 8.613168-85.048001-4.307096-7.535627-16.148795-20.454868-40.909735-20.454868L437.76988 51.858088c-24.76094 0-36.602639 12.919241-40.908712 20.454868-13.996782 23.683399-2.153036 59.210543 8.612145 85.048001L273.055444 157.360957c-61.363579 0-202.39257 48.444339-203.470111 129.187291 1.077541 9.688663 4.307096 20.454868 8.613168 29.067013l17.225313 32.298614c8.611122 15.072277 12.919241 31.220049 12.919241 48.444339l0 29.065989c-20.454868-7.53358-46.293349-13.994736-63.517639-3.228531-7.535627 4.306072-19.378349 13.994736-19.378349 34.449603L25.447067 561.071625c0 20.454868 11.841699 30.144554 18.301831 34.450626 6.459109 4.305049 15.072277 5.382591 23.683399 5.382591 13.996782 0 27.991518-4.305049 40.910759-8.613168l1.075495 235.768725c0 67.824735 51.676963 121.652687 119.498628 121.652687l564.119031 0c67.823712 0 122.729206-54.904471 122.729206-121.652687l1.075495-235.768725c11.843746 4.308119 26.913976 8.613168 39.833217 8.613168 8.613168 0 16.148795-1.077541 22.607904-5.382591 6.460132-4.306072 17.225313-13.995759 17.225313-34.450626L996.507344 456.645275C994.353284 436.190407 983.58708 426.501744 977.127971 422.195671zM434.542372 94.919836c1.075495 0 1.075495 0 3.228531 0l147.490146 0c1.075495 0 2.153036 0 3.227508 0 2.15406 9.689686-7.535627 35.527145-20.452821 62.441121L454.995193 157.360957C442.077999 133.676535 432.387289 104.609523 434.542372 94.919836zM273.055444 201.499224l476.91697 0c23.685445 0 66.748217 9.688663 104.426351 29.065989 16.148795 8.613168 29.068036 17.226337 38.757722 26.916023l-96.891747 12.917194c-189.475376 26.915-381.102764 25.838482-569.501622 0l-95.813183-13.994736c9.688663-8.612145 22.607904-18.300808 38.755676-25.838482C206.309274 211.187887 249.372046 201.499224 273.055444 201.499224zM69.585333 555.689035l0-94.737688c8.613168 1.077541 23.685445 6.460132 37.680181 12.919241l0 67.824735C94.346273 549.228903 78.199525 554.612517 69.585333 555.689035zM871.625102 396.358213l-1.077541 430.625668c0 43.064818-35.527145 77.514421-77.512375 77.514421L227.841683 904.498302c-41.98523 0-75.360362-34.449603-75.360362-77.514421l-1.077541-430.625668c0-24.76094-6.459109-48.444339-18.299785-68.90023l-13.996782-26.915 100.120278 13.995759c96.890724 13.994736 193.781448 20.453844 291.74869 20.453844 96.890724 0 193.781448-6.457062 290.672172-20.453844l100.119255-13.995759-13.994736 25.838482C877.006669 347.912851 871.625102 371.597273 871.625102 396.358213zM950.213995 555.689035c-5.383614-1.077541-22.607904-6.460132-35.527145-12.919241l0-68.901253c12.919241-6.457062 30.143531-11.839653 35.527145-12.917194L950.213995 555.689035z" p-id="16184" fill="#999999"></path></svg>