<?xml version="1.0" standalone="no"?><!DOCTYPE svg PUBLIC "-//W3C//DTD SVG 1.1//EN" "http://www.w3.org/Graphics/SVG/1.1/DTD/svg11.dtd"><svg t="1492074316757" class="icon" style="" viewBox="0 0 1024 1024" version="1.1" xmlns="http://www.w3.org/2000/svg" p-id="22250" xmlns:xlink="http://www.w3.org/1999/xlink" width="20" height="20"><defs><style type="text/css"></style></defs><path d="M237.816 500.525c12.044 0 21.807-9.764 21.807-21.807 0-72.076 58.22-130.798 130.097-131.624-36.421 32.225-59.427 79.286-59.427 131.625 0 12.044 9.764 21.807 21.807 21.807s21.807-9.764 21.807-21.807c0-72.859 59.274-132.134 132.133-132.134 0.137 0 0.27-0.019 0.408-0.021 71.252-0.222 129.149-58.243 129.149-129.538l-0.001-0.029c-0.015-76.607-62.344-138.926-138.954-138.926-76.612 0-138.94 62.334-138.94 138.955l0.001 0.029c0.014 51.647 41.492 93.783 92.891 94.882a175.052 175.052 0 0 0-38.06 18.037c0.334-1.517 0.523-3.09 0.523-4.708 0-12.044-9.764-21.807-21.807-21.807-96.631 0-175.245 78.621-175.245 175.259 0.001 12.045 9.765 21.809 21.809 21.809z m287.969-305.308c-12.044 0-21.807 9.764-21.807 21.807 0 28.299-23.021 51.322-51.319 51.322-28.307 0-51.336-23.022-51.336-51.322l-0.001-0.018c0.009-52.562 42.769-95.322 95.324-95.322 52.57 0 95.338 42.77 95.338 95.339l0.001 0.013c-0.008 47.374-38.556 85.913-85.941 85.913-0.137 0-0.27 0.019-0.408 0.021-4.687 0.01-9.331 0.209-13.927 0.582 32.925-14.919 55.884-48.093 55.884-86.531-0.002-12.044-9.766-21.807-21.81-21.807z" p-id="22251" fill="#999999"></path><path d="M563.478 373.663c-57.924 0.003-105.046 47.129-105.046 105.053 0 12.044 9.764 21.807 21.807 21.807s21.807-9.764 21.807-21.807c0-33.877 27.559-61.438 61.436-61.438h0.004c105.742-0.019 191.771-86.054 191.771-191.788 0-12.044-9.764-21.807-21.807-21.807s-21.807 9.764-21.807 21.807c-0.001 81.689-66.467 148.159-148.164 148.173zM896.696 515.651c-31.911 0-63.864 10.016-94.973 29.768-13.632 8.655-27.123 19.204-40.352 31.523a335.74 335.74 0 0 0 2.336-39.484c0-12.044-9.764-21.807-21.807-21.807H124.971c-12.043 0-21.807 9.764-21.807 21.807 0 88.221 34.356 171.161 96.74 233.542 20.953 20.953 44.234 38.727 69.247 53.116H63.17c-12.044 0-21.807 9.764-21.807 21.807 0 19.702 13.771 36.774 40.932 50.742 20.337 10.459 48.83 19.715 84.689 27.514 71.412 15.532 166.041 24.087 266.454 24.087 100.413 0 195.041-8.554 266.451-24.087 35.859-7.799 64.352-17.057 84.689-27.514 27.161-13.969 40.932-31.039 40.932-50.742 0-12.044-9.764-21.807-21.807-21.807H597.722c25.013-14.39 48.294-32.163 69.248-53.117a334.148 334.148 0 0 0 36.981-43.921l193.722-16.311c53.345-0.523 96.581-44.084 96.581-97.549 0-53.8-43.763-97.569-97.555-97.569zM741.227 867.732c-14.679 5.157-34.523 10.698-61.308 16.061-67.141 13.449-154.677 20.857-246.483 20.857-91.807 0-179.345-7.406-246.486-20.857-26.784-5.365-46.63-10.904-61.308-16.061h307.707l0.088 0.001 0.088-0.001h307.704z m-307.704-43.615h-0.175c-150.692-0.045-274.578-116.958-285.75-264.851h571.671c-2.861 37.877-13.131 73.709-29.334 106.079a536.319 536.319 0 0 0-1.915 3.084c-4.232 6.878-8.166 13.636-11.692 20.086-1.31 2.394-2.378 4.353-3.25 6.065-51.271 77.941-139.496 129.506-239.555 129.537zM896.696 667.16c-0.61 0-1.221 0.026-1.829 0.076l-163.109 13.733c30.1-46.173 90.693-121.701 164.938-121.701 29.741 0 53.94 24.203 53.94 53.953 0 29.742-24.197 53.94-53.94 53.94z" p-id="22252" fill="#999999"></path></svg>