<?xml version="1.0" standalone="no"?><!DOCTYPE svg PUBLIC "-//W3C//DTD SVG 1.1//EN" "http://www.w3.org/Graphics/SVG/1.1/DTD/svg11.dtd"><svg t="1492071930906" class="icon" style="" viewBox="0 0 1024 1024" version="1.1" xmlns="http://www.w3.org/2000/svg" p-id="9591" xmlns:xlink="http://www.w3.org/1999/xlink" width="20" height="20"><defs><style type="text/css"></style></defs><path d="M386.2 310.9l-71-150.7c-4.1-8.8-2.7-19.6 4.1-27l2-2s28.4-31.1 33.1-37.2l1.4-1.4 4.7-5.4c8.8-9.5 24.3-8.8 31.1 2l5.4 8.1c5.4 8.8 11.5 15.5 16.9 22.3 29.7 38.5 71.6 83.1 96 107.5 11.5 12.2 9.5 31.1-4.1 40.5l-76.4 54.7c-14.8 10.2-35.1 4.8-43.2-11.4z m-36.5-158.2L415.3 277c2 4.1 7.4 5.4 10.8 2.7l39.2-29.7c4.1-2.7 4.7-8.8 1.4-12.2-20.3-24.3-71-87.9-88.5-110.8-3.4-4.1-10.1-4.7-13.5 0l-14.2 16.2c-2.1 2.1-2.1 6.2-0.8 9.5z" fill="#999999" p-id="9592"></path><path d="M599.8 322.4l-76.4-54.7c-13.5-9.5-14.9-28.4-4.1-40.5 23.7-23.7 66.2-68.9 96-106.8 5.4-6.8 11.5-14.2 16.9-22.3l5.4-8.1c7.4-10.8 22.3-12.2 31.1-2l4.7 5.4 1.4 1.4c4.7 6.1 33.1 37.2 33.1 37.2l2 2c6.8 7.4 8.1 18.2 4.1 27l-71 150.7c-7.4 15.4-28.3 20.8-43.2 10.7z m79.1-179.8l-14.2-16.2c-3.4-4.1-10.1-4.1-13.5 0-18.2 23-68.9 87.2-88.5 110.8-3.4 4.1-2.7 9.5 1.4 12.2l39.2 29.7c3.4 2.7 8.8 1.4 10.8-2.7l65.6-124.3c1.9-2.7 1.2-6.8-0.8-9.5z" fill="#999999" p-id="9593"></path><path d="M512.6 969.1H295.7c-31.1 0-54.7-23.7-54.7-56.1l-2.7-500.1c0-21-18.2-25-25.7-25s-25 5.4-25 26.4v339.9h-58.8c-2 0-4.1 2-4.1 4.1v12.2c0 2 2 4.1 4.1 4.1h58.8v62.2c0 8.8-6.1 14.9-14.9 14.9h-66.9c-8.8 0-15.5-5.4-15.5-14.2l0.7-508.2c0-54.1 9.5-128.4 109.5-151.4l93.9-17.6c35.1 0 75-46.6 95.3-76.4 0.7-0.7 0.7-1.4 1.4-1.4C403.8 66.9 435.6 52 456.5 52h56.1V0h-60.8C414 0 367.3 22.3 343.7 52l-1.4 1.4c-18.9 24.3-42.6 49.3-53.4 54.1-0.7 0.7-2 0.7-3.4 0.7 0 0-18.9 6.8-94.6 18.2C84.1 142.6 41.6 225 41.6 324.4v539.3c0 21.6 12.8 36.5 34.5 35.8l94.6 0.7c8.8 0 16.2 6.8 16.2 15.5 0 71 52.7 108.1 112.9 108.1h212.9v-54.7z" fill="#999999" p-id="9594"></path><path d="M512.6 969.1h216.9c31.1 0 54.7-23.7 54.7-56.1l2.7-500.1c0-21 18.2-25 25.7-25 7.4 0 25 5.4 25 26.4v339.9h58.8c2 0 4.1 2 4.1 4.1v12.2c0 2-2 4.1-4.1 4.1h-58.8v62.2c0 8.8 6.1 14.9 14.9 14.9h66.2c8.8 0 15.5-5.4 15.5-14.2l-0.7-508.2c0-54.1-9.5-128.4-109.5-151.4l-93.9-17.6c-35.1 0-75-46.6-95.3-76.4-0.7-0.7-0.7-1.4-1.4-1.4C620.7 66.9 589 52 568 52h-55.4V0h60.8c37.8 0 84.5 22.3 108.1 52l1.4 1.4c18.9 24.3 42.6 49.3 53.4 54.1 0.7 0.7 2 0.7 3.4 0.7 0 0 18.9 6.8 94.6 18.2 106.8 16.2 149.4 98.7 149.4 198v539.3c0 21.6-12.8 36.5-34.5 35.8l-94.6 0.7c-8.8 0-16.2 6.8-16.2 15.5 0 71-52.7 108.1-112.9 108.1H512.6v-54.7z" fill="#999999" p-id="9595"></path><path d="M513.3 384.5m-34.5 0a34.5 34.5 0 1 0 69 0 34.5 34.5 0 1 0-69 0Z" fill="#999999" p-id="9596"></path><path d="M513.3 519.7m-34.5 0a34.5 34.5 0 1 0 69 0 34.5 34.5 0 1 0-69 0Z" fill="#999999" p-id="9597"></path><path d="M513.3 654.9m-34.5 0a34.5 34.5 0 1 0 69 0 34.5 34.5 0 1 0-69 0Z" fill="#999999" p-id="9598"></path><path d="M513.3 790m-34.5 0a34.5 34.5 0 1 0 69 0 34.5 34.5 0 1 0-69 0Z" fill="#999999" p-id="9599"></path><path d="M125.4 813m-13.5 0a13.5 13.5 0 1 0 27 0 13.5 13.5 0 1 0-27 0Z" fill="#999999" p-id="9600"></path><path d="M898.5 813m-13.5 0a13.5 13.5 0 1 0 27 0 13.5 13.5 0 1 0-27 0Z" fill="#999999" p-id="9601"></path></svg>