<?xml version="1.0" standalone="no"?><!DOCTYPE svg PUBLIC "-//W3C//DTD SVG 1.1//EN" "http://www.w3.org/Graphics/SVG/1.1/DTD/svg11.dtd"><svg t="1492074038143" class="icon" style="" viewBox="0 0 1024 1024" version="1.1" xmlns="http://www.w3.org/2000/svg" p-id="17768" xmlns:xlink="http://www.w3.org/1999/xlink" width="20" height="20"><defs><style type="text/css"></style></defs><path d="M416 928l25.6 0c6.4 0 12.8-6.4 12.8-12.8l0-211.2c0-6.4-6.4-12.8-12.8-12.8L416 691.2 416 928zM358.4 928l32 0 0-236.8L358.4 691.2 358.4 928zM294.4 697.6l0 236.8 38.4 0 0-236.8L294.4 697.6zM268.8 928l0-236.8L249.6 691.2c-6.4 0-12.8 6.4-12.8 12.8l0 211.2c0 6.4 6.4 12.8 12.8 12.8L268.8 928zM665.6 697.6c-64 0-115.2 51.2-115.2 115.2s51.2 115.2 115.2 115.2c64 0 115.2-51.2 115.2-115.2S729.6 697.6 665.6 697.6zM627.2 588.8C608 588.8 595.2 576 595.2 556.8c0 0 0 0 0 0L595.2 102.4c0 0 0 0 0 0C595.2 76.8 614.4 64 627.2 64L704 64c19.2 0 38.4 19.2 38.4 38.4l0 454.4c0 19.2-12.8 32-32 38.4l0 76.8c64 19.2 108.8 76.8 108.8 140.8 0 83.2-64 147.2-147.2 147.2C582.4 960 512 896 512 812.8c0-70.4 51.2-128 115.2-147.2L627.2 588.8C627.2 588.8 627.2 588.8 627.2 588.8zM678.4 588.8l-25.6 0c0 0 0 0 0 0l0 70.4c0 0 6.4 0 6.4 0 6.4 0 12.8 0 12.8 0L672 588.8zM627.2 550.4C627.2 550.4 627.2 550.4 627.2 550.4l76.8 0 0 0L704 102.4l0 0L627.2 102.4c0 0 0 0 0 0L627.2 550.4zM332.8 588.8C332.8 588.8 332.8 588.8 332.8 588.8l0 83.2 19.2 0L352 588.8 332.8 588.8zM441.6 960l-192 0c-19.2 0-38.4-19.2-38.4-38.4l0-211.2c0-19.2 19.2-38.4 38.4-38.4l57.6 0L307.2 588.8c0 0 0 0 0 0C288 588.8 275.2 576 268.8 556.8l0 0L268.8 96l0 0C275.2 76.8 288 64 307.2 64L384 64c19.2 0 38.4 19.2 38.4 38.4l0 454.4c0 19.2-12.8 32-32 38.4l0 83.2 57.6 0c19.2 0 38.4 19.2 38.4 38.4l0 211.2C480 940.8 460.8 960 441.6 960zM307.2 550.4C307.2 550.4 307.2 550.4 307.2 550.4l76.8 0 0 0L384 102.4l0 0L307.2 102.4c0 0 0 0 0 0L307.2 550.4z" p-id="17769" fill="#999999"></path></svg>