<?xml version="1.0" standalone="no"?><!DOCTYPE svg PUBLIC "-//W3C//DTD SVG 1.1//EN" "http://www.w3.org/Graphics/SVG/1.1/DTD/svg11.dtd"><svg t="1492074175637" class="icon" style="" viewBox="0 0 1024 1024" version="1.1" xmlns="http://www.w3.org/2000/svg" p-id="20416" xmlns:xlink="http://www.w3.org/1999/xlink" width="20" height="20"><defs><style type="text/css"></style></defs><path d="M129.785413 959.88168c-56.518225 0-92.183516-34.195823-93.674473-35.651988l-3.083222-3.010567L33.027719 82.352613l40.59558 0 0 133.294842 32.135908 0L105.759207 82.352613l52.144614 0 0 133.294842 33.695427 0L191.599248 82.352613l40.790008 0 0 839.832514-4.298909 3.059686C195.806059 948.228269 162.730757 959.88168 129.785413 959.88168zM53.493843 912.246777c8.985652 7.311523 37.010939 27.16878 76.29157 27.16878 27.181059 0 54.790884-9.368368 82.137719-27.860535L211.923132 236.113579l-74.485435 0L137.437697 102.818737l-11.212366 0 0 133.294842L53.493843 236.113579 53.493843 912.246777z" p-id="20417" fill="#999999"></path><path d="M824.33096 963.42846 712.292234 842.956667 330.896804 842.956667c-13.379729 0-24.264637-10.884908-24.264637-24.264637L306.632167 117.139907c0-13.379729 10.884908-24.263613 24.264637-24.263613l647.180795 0c13.379729 0 24.264637 10.884908 24.264637 24.263613l0 701.552124c0 12.06171-8.847505 22.096251-20.392446 23.955598L824.33096 963.42846zM330.896804 113.342418c-2.094708 0-3.798513 1.703805-3.798513 3.797489l0 701.552124c0 2.094708 1.703805 3.798513 3.798513 3.798513l390.311497 0 105.440447 113.378234 147.959843-113.378234 3.470031 0c2.094708 0 3.798513-1.703805 3.798513-3.798513L981.877135 117.139907c0-2.093684-1.703805-3.797489-3.798513-3.797489L330.896804 113.342418z" p-id="20418" fill="#999999"></path><path d="M912.559397 765.089206 414.605298 765.089206c-12.805654 0-23.222911-10.41828-23.222911-23.222911L391.382387 187.622168c0-12.805654 10.417257-23.222911 23.222911-23.222911l497.955122 0c12.80463 0 23.221888 10.41828 23.221888 23.222911l0 554.244126C935.782308 754.671948 925.364027 765.089206 912.559397 765.089206zM414.605298 184.865381c-1.51961 0-2.756787 1.236154-2.756787 2.756787l0 554.244126c0 1.51961 1.236154 2.756787 2.756787 2.756787l497.955122 0c1.51961 0 2.755764-1.237177 2.755764-2.756787L915.316184 187.622168c0-1.520633-1.236154-2.756787-2.755764-2.756787L414.605298 184.865381z" p-id="20419" fill="#999999"></path></svg>