<?xml version="1.0" standalone="no"?><!DOCTYPE svg PUBLIC "-//W3C//DTD SVG 1.1//EN" "http://www.w3.org/Graphics/SVG/1.1/DTD/svg11.dtd"><svg t="1492074432289" class="icon" style="" viewBox="0 0 1024 1024" version="1.1" xmlns="http://www.w3.org/2000/svg" p-id="24271" xmlns:xlink="http://www.w3.org/1999/xlink" width="20" height="20"><defs><style type="text/css"></style></defs><path d="M262.7 225.3l15.4-35.4-35.4 15.4-35.3-15.4 15.3 35.4-15.3 35.4 35.3-15.4 35.4 15.4zM164.3 311.1l-49.7-21.5 21.6 49.6-21.6 49.6 49.7-21.5 49.6 21.5-21.5-49.6 21.5-49.6zM383.6 545.4h192v40h-192zM384.1 619.3h220.3v40H384.1zM383.6 693.6h252.8v40H383.6z" p-id="24272" fill="#999999"></path><path d="M873.3 228.2l-15.7-15.7-34.9 82.5c-2.1 5-7.9 7.4-12.9 5.2l-22.9-9.7c-5-2.1-7.4-7.9-5.2-12.9l34.9-82.5-22.3-0.3c-46.9-0.8-88.9 26.7-107.2 69.8-16.8 39.8-10 84.7 17.1 117.4l-19.3 38.7c-10.8-9.9-22.4-18.9-34.8-26.9h5.9v-99.4c0-35.6-28.9-64.5-64.5-64.5h-47.9v-92.4h76.7c11 0 20-9 20-20s-9-20-20-20H402.6l-80.5 60.6c-1.7 1.3-2.1 3.6-1 5.4 1 1.6 2.9 2.2 4.7 1.7l81.8-27.7h72.9V230h-51.9c-35.6 0-64.5 28.9-64.5 64.5v99.4h9.2C302.9 439.4 256 518.6 256 608.2v192.6c0 70.5 57.6 128.1 128.1 128.1h254.7c71.1 0 129.3-58.2 129.3-129.3v-140c0-11-9-20-20-20s-20 9-20 20v140c0 23.7-9.3 46.1-26.3 63.1-16.9 16.9-39.3 26.3-63.1 26.3H384.1c-23.4 0-45.5-9.2-62.2-25.9-16.7-16.7-25.9-38.8-25.9-62.2V608.2c0-28.9 5.7-56.9 16.9-83.4 10.9-25.6 26.4-48.6 46.3-68.5s42.9-35.4 68.5-46.3c21-8.9 43-14.3 65.6-16.2h36.4c22.7 1.9 44.9 7.3 66 16.3 25.7 10.9 48.9 26.6 68.8 46.5s35.6 43.1 46.5 68.8c6.3 14.9 10.9 30.3 13.7 46.1 1.7 9.5 10 16.3 19.6 16.3 12.4 0 21.9-11.2 19.7-23.4-2.5-14.1-6.2-27.8-11-41 4.8-3.6 9.3-9.4 13.1-18.2l34.7-82c42.7-3.1 80-29.6 96.9-69.6 18.4-43 8.8-92.3-24.4-125.4zM404.1 353.9v-59.4c0-13.5 11-24.5 24.5-24.5h162.8c13.5 0 24.5 11 24.5 24.5v59.4h-84.7c-6.4-0.5-12.9-0.7-19.4-0.7h-0.7c-6.6 0-13.1 0.3-19.5 0.7h-87.5z m466.1-11.8c-13.3 31.4-43.7 51.6-77.8 51.5h-1.3l-10.1-0.2-41.6 98.4c-8.4-16.2-18.5-31.3-30-45.2-0.4-4.3 0.1-7.4 0.5-8.7l30.6-61.3-7.6-7.6c-24.5-24.4-31.6-60.8-18.1-92.7 10.3-24.4 30.9-41.9 55.5-48.6L754 265.9c-8.6 20.2 0.9 43.7 21.2 52.2l22.9 9.7c20.2 8.6 43.7-0.9 52.2-21.2l16.2-38.2c12.3 22.3 14 49.3 3.7 73.7z" p-id="24273" fill="#999999"></path></svg>