<?xml version="1.0" standalone="no"?><!DOCTYPE svg PUBLIC "-//W3C//DTD SVG 1.1//EN" "http://www.w3.org/Graphics/SVG/1.1/DTD/svg11.dtd"><svg t="1494904010837" class="icon" style="" viewBox="0 0 1024 1024" version="1.1" xmlns="http://www.w3.org/2000/svg" p-id="6914" xmlns:xlink="http://www.w3.org/1999/xlink" width="24" height="24"><defs><style type="text/css"></style></defs><path d="M570.609706 725.534328c0 6.127558-2.100934 12.277628-6.281311 16.938788-4.180377 4.683672-9.696224 7.024997-15.167043 7.024997l-74.302237 0c-5.493333 0-10.965175-2.341325-15.167043-7.024997-4.179354-4.66116-6.258797-10.810207-6.258797-16.938788l0-39.940664c0-6.127558 2.079443-12.277628 6.258797-16.938788 4.201867-4.683672 9.67371-7.024997 15.167043-7.024997l74.302237 0c5.493333 0 10.986665 2.341325 15.167043 7.024997 4.180377 4.66116 6.281311 10.810207 6.281311 16.938788L570.609706 725.534328z" p-id="6915" fill="#ffffff"></path><path d="M511.999488 63.792908c-247.531538 0-448.22648 200.665229-448.22648 448.208115 0 247.542886 200.694941 448.208115 448.22648 448.208115 247.553029 0 448.22648-200.666252 448.22648-448.208115C960.225968 264.457114 759.552517 63.792908 511.999488 63.792908zM511.999488 857.676927c-190.911733 0-345.668577-154.771993-345.668577-345.675904 0-190.926424 154.756844-345.675904 345.668577-345.675904 190.934247 0 345.712581 154.750503 345.712581 345.675904C857.712069 702.904934 702.933735 857.676927 511.999488 857.676927z" p-id="6916" fill="#ffffff"></path><path d="M564.306905 594.508155c-4.201867 3.12927-9.71669 4.705162-15.210023 4.682649l-73.866291-0.26299c-5.449329-0.021489-10.898658-1.597381-15.057544-4.705162-4.157863-3.130294-6.237307-7.199982-6.25982-11.293207l-0.480974-112.817462L453.432252 292.974611c0-4.093225 2.079443-8.185426 6.258797-11.337209 4.180377-3.12927 9.67371-4.683672 15.145552-4.683672l74.237767 0c5.471842 0 10.942662 1.554402 15.123039 4.683672 4.180377 3.130294 6.281311 7.243985 6.281311 11.337209l0 175.846984 0.130989 114.306372C570.609706 587.241658 568.509795 591.377862 564.306905 594.508155z" p-id="6917" fill="#ffffff"></path></svg>