<?xml version="1.0" standalone="no"?><!DOCTYPE svg PUBLIC "-//W3C//DTD SVG 1.1//EN" "http://www.w3.org/Graphics/SVG/1.1/DTD/svg11.dtd"><svg t="1494572654977" class="icon" style="" viewBox="0 0 1024 1024" version="1.1" xmlns="http://www.w3.org/2000/svg" p-id="2933" xmlns:xlink="http://www.w3.org/1999/xlink" width="20" height="20"><defs><style type="text/css"></style></defs><path d="M512 22.976113C241.515561 22.976113 21.464239 243.027436 21.464239 513.511874S241.515561 1004.047636 512 1004.047636s490.535761-220.051323 490.535761-490.535762S782.484439 22.976113 512 22.976113z m0 904.42569c-228.222499 0-413.889929-185.667429-413.889929-413.889929S283.777501 99.621946 512 99.621946s413.889929 185.667429 413.889929 413.889928-185.667429 413.889929-413.889929 413.889929z m0-797.121524c-211.651479 0-383.231596 171.580116-383.231596 383.231595s171.580116 383.231596 383.231596 383.231596 383.231596-171.580116 383.231596-383.231596-171.580116-383.231596-383.231596-383.231595z" p-id="2934" fill="#ffffff"></path></svg>