<?xml version="1.0" standalone="no"?><!DOCTYPE svg PUBLIC "-//W3C//DTD SVG 1.1//EN" "http://www.w3.org/Graphics/SVG/1.1/DTD/svg11.dtd"><svg t="1491894029373" class="icon" style="" viewBox="0 0 1026 1024" version="1.1" xmlns="http://www.w3.org/2000/svg" p-id="3729" xmlns:xlink="http://www.w3.org/1999/xlink" width="20.0390625" height="20"><defs><style type="text/css"></style></defs><path d="M884.646678 0 145.505621 0c-78.375626 0-142.766603 64.240572-142.766603 142.622337l0 582.942314c0 78.375626 64.390977 141.279942 142.766603 141.279942l198.099483 0 146.46126 146.557437c6.937073 6.919679 16.020751 10.592849 25.102382 10.592849 9.106187 0 18.217491-3.371336 25.158657-10.323756 13.856753-13.895633 13.834243-36.34392-0.06139-50.204765L383.40119 806.36723c-6.662865-6.646494-15.690269-10.97756-25.102382-10.97756L145.505621 795.38967c-39.187301 0-71.309633-30.635671-71.309633-69.823995L74.195988 142.622337c0-39.187301 32.122332-72.33894 71.309633-72.33894l739.142079 0c39.188324 0 69.276601 33.145499 69.276601 72.33894l0 582.942314c0 39.188324-30.088276 69.823995-69.276601 69.823995L593.254816 795.388646c-19.625369 0-35.532548 16.103627-35.532548 35.728996 0 19.629462 15.907179 35.72695 35.532548 35.72695l291.391862 0c78.382788 0 140.73357-62.904315 140.73357-141.279942L1025.380248 142.622337C1025.380248 64.240572 963.029466 0 884.646678 0L884.646678 0zM253.389388 564.92741c51.546137 69.970308 139.592739 105.452721 261.690343 105.452721 121.415152 0 209.600904-35.522316 262.098587-105.564246 54.375194-72.551758 55.688941-163.884774 48.953431-222.451884 10.893661-11.468681 17.596428-26.964547 17.596428-44.034044 0-35.332007-28.635379-63.966363-63.967386-63.966363-35.324845 0-63.960224 28.639472-63.960224 63.966363 0 27.002404 16.740037 50.07687 40.405893 59.460335 4.438499 46.544896 2.09647 113.926591-36.096314 164.66238-38.388208 50.99772-107.369113 76.850084-205.029393 76.850084-98.09615 0-166.825356-25.655916-204.275319-76.268925-38.036239-51.389593-38.165157-120.007274-32.520344-165.590393 23.191106-9.602424 39.513691-32.451792 39.513691-59.114504 0-35.326891-28.635379-63.966363-63.96227-63.966363-35.324845 0-63.966363 28.639472-63.966363 63.966363 0 17.540154 7.065993 33.424824 18.501931 44.978427C200.529504 400.835958 199.803056 492.196598 253.389388 564.92741L253.389388 564.92741zM253.389388 564.92741" p-id="3730" fill="#1abc9c"></path></svg>