<?xml version="1.0" standalone="no"?><!DOCTYPE svg PUBLIC "-//W3C//DTD SVG 1.1//EN" "http://www.w3.org/Graphics/SVG/1.1/DTD/svg11.dtd"><svg t="1494839679479" class="icon" style="" viewBox="0 0 1024 1024" version="1.1" xmlns="http://www.w3.org/2000/svg" p-id="1561" xmlns:xlink="http://www.w3.org/1999/xlink" width="32" height="32"><defs><style type="text/css"></style></defs><path d="M510.138 175.994c184.931 0 335.385 150.453 335.385 335.385s-150.454 335.387-335.385 335.387c-184.896 0-335.385-150.453-335.385-335.387s150.49-335.385 335.385-335.385M510.138 64.197c-246.943 0-447.181 200.198-447.181 447.181 0 246.906 200.237 447.181 447.181 447.181 246.943 0 447.18-200.277 447.18-447.181 0-246.981-200.237-447.181-447.18-447.181z" p-id="1562" fill="#ffffff"></path><path d="M621.93 679.070c-14.315 0-28.633-5.468-39.53-16.403l-111.719-111.721c-10.139-10.101-16.404-23.999-16.443-39.418v0-223.741c0-30.911 24.987-55.898 55.898-55.898s55.895 24.987 55.895 55.898v200.427l95.43 95.39c21.795 21.874 21.795 57.265 0 79.063-10.899 10.934-25.213 16.402-39.532 16.402z" p-id="1563" fill="#ffffff"></path></svg>