<?xml version="1.0" standalone="no"?><!DOCTYPE svg PUBLIC "-//W3C//DTD SVG 1.1//EN" "http://www.w3.org/Graphics/SVG/1.1/DTD/svg11.dtd"><svg t="1493287952780" class="icon" style="" viewBox="0 0 1024 1024" version="1.1" xmlns="http://www.w3.org/2000/svg" p-id="15762" xmlns:xlink="http://www.w3.org/1999/xlink" width="32" height="32"><defs><style type="text/css"></style></defs><path d="M328.704 478.944c6.144 9.216 31.744 48.128 160.768 232.448l1.024 1.024c7.168 9.216 19.456 15.36 30.72 15.36 12.288 0 24.576-6.144 30.72-16.384 55.296-79.872 159.744-230.4 163.84-235.52l1.024-1.024c21.504-35.84 33.792-77.824 33.792-119.808 0-125.952-102.4-229.376-229.376-229.376s-229.376 102.4-229.376 229.376c0 44.032 12.288 86.016 36.864 123.904l0 0zM520.192 184.032c94.208 0 171.008 76.8 171.008 171.008 0 30.72-8.192 60.416-24.576 89.088-6.144 9.216-90.112 130.048-145.408 209.92-43.008-61.44-136.192-195.584-145.408-207.872-17.408-26.624-27.648-58.368-27.648-90.112 1.024-94.208 77.824-172.032 172.032-172.032zM520.192 483.04c69.632 0 126.976-57.344 126.976-126.976s-57.344-126.976-126.976-126.976c-69.632 0-126.976 57.344-126.976 126.976s56.32 126.976 126.976 126.976zM520.192 286.432c37.888 0 68.608 30.72 68.608 68.608 0 38.912-30.72 68.608-68.608 68.608-37.888 0-68.608-30.72-68.608-68.608s30.72-68.608 68.608-68.608zM1006.592 781.024l-142.336-275.456-117.76 0-46.08 59.392 128 0 130.048 248.832 2.048 2.048c7.168 9.216 7.168 21.504 2.048 31.744s-15.36 16.384-27.648 16.384l-844.8 0c-12.288 0-22.528-6.144-27.648-16.384-5.12-11.264-4.096-22.528 3.072-32.768l1.024-1.024 128-249.856 145.408 0-48.128-59.392-133.12 0-142.336 276.48c-19.456 27.648-21.504 62.464-6.144 91.136 16.384 30.72 46.08 49.152 80.896 49.152l844.8 0c33.792 0 64.512-18.432 79.872-49.152 13.312-29.696 10.24-64.512-9.216-91.136z" p-id="15763"></path></svg>