<?xml version="1.0" standalone="no"?><!DOCTYPE svg PUBLIC "-//W3C//DTD SVG 1.1//EN" "http://www.w3.org/Graphics/SVG/1.1/DTD/svg11.dtd"><svg t="1493345442814" class="icon" style="" viewBox="0 0 1024 1024" version="1.1" xmlns="http://www.w3.org/2000/svg" p-id="4322" xmlns:xlink="http://www.w3.org/1999/xlink" width="32" height="32"><defs><style type="text/css"></style></defs><path d="M901.784183 130.096944l-71.520459 0 0-91.948962c0-21.034552-17.113446-38.147998-38.147998-38.147998l-2.548388 0c-21.031241 0-38.141375 17.11179-38.141375 38.147998l0 91.948962-475.285176 0 0-91.948962c0-21.034552-17.11179-38.147998-38.147998-38.147998l-2.548388 0c-21.034552 0-38.147998 17.11179-38.147998 38.147998l0 91.948962-75.087209 0c-66.715116 0-120.991315 54.276199-120.991315 120.991315L1.217878 902.998766c0 66.720084 54.276199 121.001251 120.991315 121.001251l779.573334 0c66.720084 0 120.999595-54.281167 120.999595-121.001251l0-651.908851C1022.780466 184.374799 968.499299 130.096944 901.784183 130.096944zM946.487782 944.986733l-867.617748 0L78.870034 404.68371l867.617748 0L946.487782 944.986733zM946.487782 324.319235l-867.617748 0 0-117.927951 867.617748 0L946.487782 324.319235z" p-id="4323"></path><path d="M408.749706 873.666635c6.794046 6.794046 15.696018 10.188585 24.597991 10.188585 6.029033 0 12.041507-1.596261 17.414814-4.710958 3.086547-1.602885 5.98598-3.690941 8.575765-6.280726L811.395053 520.810071c13.584781-13.586437 13.584781-35.612857 0-49.197637-13.586437-13.584781-35.612857-13.584781-49.199293 0L433.644098 800.165752 267.310017 633.830015c-13.586437-13.584781-35.611201-13.584781-49.197637 0-13.584781 13.586437-13.584781 35.611201 0 49.197637L408.749706 873.666635z" p-id="4324"></path></svg>