<?xml version="1.0" standalone="no"?><!DOCTYPE svg PUBLIC "-//W3C//DTD SVG 1.1//EN" "http://www.w3.org/Graphics/SVG/1.1/DTD/svg11.dtd"><svg t="1493288115385" class="icon" style="" viewBox="0 0 1024 1024" version="1.1" xmlns="http://www.w3.org/2000/svg" p-id="16983" xmlns:xlink="http://www.w3.org/1999/xlink" width="32" height="32"><defs><style type="text/css"></style></defs><path d="M698.42944 785.34656c-0.18432 0.8192-1.35168 1.18784-2.06848 0.53248l-195.72736-171.60192a11.8784 11.8784 0 0 1-1.00352-16.87552l216.41216-238.94016a10.24 10.24 0 1 0-15.17568-13.7216L484.4544 583.63904a32.3584 32.3584 0 0 0 2.6624 46.01856l195.72736 171.60192a21.77024 21.77024 0 0 0 35.59424-11.50976l121.91744-572.0064a10.24 10.24 0 1 0-20.02944-4.25984l-121.89696 571.84256z" fill="#333333" p-id="16984"></path><path d="M197.0176 463.27808c-19.23072 8.0896-18.10432 35.5328 1.59744 42.00448l174.36672 57.0368a10.24 10.24 0 0 0 9.29792-1.51552L836.608 223.66208c9.66656-7.168 1.18784-22.26176-9.97376-17.69472L197.0176 463.2576z m627.4048-256.06144L370.0736 544.3584l9.27744-1.49504-174.36672-57.0368a1.9456 1.9456 0 0 1-0.14336-3.62496l629.5552-257.29024-9.97376-17.69472z" fill="#333333" p-id="16985"></path><path d="M374.64064 728.80128c0.8192 27.2384 35.5328 38.11328 51.77344 16.26112l90.66496-102.68672a10.24 10.24 0 0 0-15.36-13.55776l-91.21792 103.36256c-5.20192 6.94272-15.1552 3.80928-15.40096-3.9936l-5.3248-174.57152a10.24 10.24 0 1 0-20.45952 0.6144l5.3248 174.57152z" fill="#333333" p-id="16986"></path></svg>