<?xml version="1.0" standalone="no"?><!DOCTYPE svg PUBLIC "-//W3C//DTD SVG 1.1//EN" "http://www.w3.org/Graphics/SVG/1.1/DTD/svg11.dtd"><svg t="1494300767813" class="icon" style="" viewBox="0 0 1024 1024" version="1.1" xmlns="http://www.w3.org/2000/svg" p-id="4589" xmlns:xlink="http://www.w3.org/1999/xlink" width="32" height="32"><defs><style type="text/css"></style></defs><path d="M949.584 565.726h-8.143v348.286h-37.046c-1.477 0-3.702 0-5.193 0.751v-349.033h-289.743v404.606h252.699c20.757 0 37.796-17.029 37.796-37.796v-18.529h42.985v18.529c0 44.475-36.31 80.038-80.038 80.038h-677.303c-44.475 0-80.038-35.561-80.038-80.038v-367.558h-13.34c-42.239 0-77.057-34.086-77.057-77.057v-185.257c0-42.239 34.835-77.057 77.057-77.057h199.341l-19.268-14.825c-8.891-6.676-16.3-14.073-22.228-22.228-28.901-40.019-17.029-85.219-15.558-90.407 1.477-5.93 6.676-25.938 20.757-46.683 15.558-22.228 45.204-48.915 97.074-48.915h5.193c49.641 1.477 88.18 19.268 115.597 51.133 32.614 38.54 40.755 130.422 42.239 166.732h16.3c1.477-37.046 9.619-128.199 42.239-166.732 27.411-32.614 65.956-49.641 115.597-51.133h5.193c51.871 0 81.516 26.682 97.074 48.915 14.073 20.004 19.268 40.755 20.757 46.683 1.477 5.193 14.073 50.387-15.558 90.407-5.93 8.143-13.34 15.558-22.228 22.228l-19.268 14.825h191.188c42.239 0 77.057 34.086 77.057 77.057v185.257c-0.751 42.239-33.338 76.332-74.107 77.811zM146.297 933.286c0 20.757 17.029 37.796 37.796 37.796h252.699v-404.606h-289.743v366.814zM90.714 270.058c-19.268 0-34.086 15.558-34.086 34.086v185.257c0 18.529 15.558 34.086 34.086 34.086h346.068v-253.435h-346.068zM439.737 82.564c-19.268-22.971-47.433-34.835-84.482-36.31h-3.702c-26.682 0-47.433 10.375-62.256 31.125-11.108 15.558-14.073 31.125-14.073 31.862v1.477l-0.751 0.751c-0.751 2.965-8.143 31.125 8.891 54.090 19.268 25.2 62.256 58.543 124.483 58.543 17.029 0 36.31-0.751 56.319-2.965l7.402-0.751v-7.402c0.751-26.682-3.702-96.335-31.862-130.422zM467.164 270.058v701.031h110.417v-701.031h-110.417zM762.107 165.556c17.787-24.444 8.891-53.357 8.891-54.090l-0.751-1.477v-1.477c-0.751-1.477-3.702-17.787-14.825-33.338-14.073-19.268-34.835-29.651-60.77-29.651h-3.702c-37.046 1.477-65.212 13.34-84.482 36.31-28.164 33.338-32.614 103.751-32.614 131.169v7.402l7.402 0.751c20.004 2.234 39.268 2.965 56.319 2.965 62.256 0.751 105.969-32.614 124.483-58.543zM979.974 304.142c0-18.529-15.558-34.086-34.086-34.086h-337.171v253.435h337.171c19.268 0 34.086-15.558 34.086-34.086v-185.257z" p-id="4590" fill="#999999"></path></svg>