<?xml version="1.0" standalone="no"?><!DOCTYPE svg PUBLIC "-//W3C//DTD SVG 1.1//EN" "http://www.w3.org/Graphics/SVG/1.1/DTD/svg11.dtd"><svg t="1494988030014" class="icon" style="" viewBox="0 0 1024 1024" version="1.1" xmlns="http://www.w3.org/2000/svg" p-id="5543" xmlns:xlink="http://www.w3.org/1999/xlink" width="24" height="24"><defs><style type="text/css"></style></defs><path d="M762.523648 134.991872C551.913472 4.23936 275.11808 70.255616 144.050176 282.432512c-10.663936 17.214464-19.821568 34.915328-27.721728 52.87424l-20.7104-61.50656c-4.197376-12.463104-17.579008-19.08224-29.986816-14.859264-12.314624 4.31616-19.032064 17.793024-14.773248 30.27968l37.013504 110.409728c0 0 0.093184 0.098304 0.072704 0.155648 2.157568 6.3488 6.607872 11.010048 12.208128 13.759488 5.460992 2.766848 11.886592 3.422208 18.241536 1.267712l0.02048-0.057344 110.025728-37.735424c0.113664 0.04096 0.113664 0.04096 0.134144-0.01536 12.428288-4.279296 19.144704-17.752064 14.922752-30.160896-4.197376-12.463104-17.577984-19.081216-29.984768-14.86336l-59.79136 20.431872c7.076864-15.346688 15.20128-30.381056 24.280064-45.196288C296.70912 115.12832 547.362816 55.322624 738.072576 173.722624 928.705536 292.158464 987.157504 543.869952 868.52608 735.9232 749.935616 928.050176 499.145728 987.875328 308.513792 869.438464c-69.516288-43.164672-120.827904-104.157184-152.952832-173.25056l-0.13312 0.016384c-1.92-5.033984-5.825536-9.240576-11.3152-11.2384-9.996288-3.638272-21.165056 1.6128-24.866816 11.784192-1.26976 3.487744-1.288192 7.104512-0.649216 10.507264 0.633856 1.460224 0.52224 2.650112 1.042432 4.067328 0.142336 0.313344 0.311296 0.56832 0.45568 0.877568 35.273728 76.256256 91.413504 143.545344 168.061952 191.112192 210.57024 130.873344 487.441408 64.815104 618.450944-147.383296C1037.596672 543.789056 973.110272 265.805824 762.523648 134.991872z" p-id="5544" fill="#999999"></path><path d="M384.325632 579.219456l0 0.119808c-11.251712 0-20.492288 9.242624-20.492288 20.492288 0 11.251712 9.2416 20.492288 20.492288 20.492288l0 0.120832 123.20256 0 0 121.619456 0.059392 0c0 11.251712 9.182208 20.431872 20.492288 20.431872 11.312128 0 20.431872-9.181184 20.431872-20.431872l0.181248 0L548.692992 620.445696l123.137024 0 0-0.24064c11.311104 0 20.432896-9.182208 20.432896-20.493312 0-11.37152-9.121792-20.492288-20.432896-20.492288L548.694016 579.219456l0-63.241216 123.137024 0 0-0.24576c11.311104 0 20.432896-9.182208 20.432896-20.492288 0-11.312128-9.121792-20.492288-20.432896-20.492288L548.694016 474.747904l0-37.700608 122.10688-119.79776-0.124928-0.119808c8.45312-7.479296 9.24672-20.431872 1.642496-28.945408-7.479296-8.513536-20.431872-9.2416-28.886016-1.702912L528.627712 399.707136 407.796736 281.010176c-8.513536-7.483392-21.402624-6.690816-28.941312 1.82272-7.483392 8.392704-6.689792 21.342208 1.762304 28.821504l-0.124928 0.185344 127.034368 124.23168 0 38.675456L384.325632 474.74688l0 0.119808c-11.251712 0-20.431872 9.121792-20.431872 20.432896 0 11.37152 9.181184 20.493312 20.431872 20.493312l0 0.119808 123.20256 0 0 63.306752L384.325632 579.219456z" p-id="5545" fill="#999999"></path></svg>