<?xml version="1.0" standalone="no"?><!DOCTYPE svg PUBLIC "-//W3C//DTD SVG 1.1//EN" "http://www.w3.org/Graphics/SVG/1.1/DTD/svg11.dtd"><svg t="1493286894766" class="icon" style="" viewBox="0 0 1024 1024" version="1.1" xmlns="http://www.w3.org/2000/svg" p-id="12126" xmlns:xlink="http://www.w3.org/1999/xlink" width="32" height="32"><defs><style type="text/css"></style></defs><path d="M924.934 816.655v-84.425h39.529v-338.818h-40.76v-77.555c0-33.483-26.944-64.709-60.012-64.709h-59.738v-100.512h-638.968c-26.11 0-64.177 0.272-84.74 29.536-13.023 18.508-19.133 35.552-18.547 97.462 0 0.377 2.798 33.755-2.152 34.109-0.188 2.048 1.891 2.026 1.891 4.116l1.262 500.797c0 33.484 26.935 56.709 60.002 56.709h742.225c33.087 0 60.008-23.225 60.008-56.709v0zM924.11 692.813h-295.182c-72.261 0-130.965-58.005-130.965-131.068 0-73.044 58.736-131.238 130.965-131.238l296.006 0.315-0.824 261.991zM112.642 208.059c12.836-15.499 25.777-16.858 39.813-17.505h611.772v60.595h-632.106c-11.602 0-22.4 4.469-31.571 10.298-1.64-28.763 2.338-41.63 12.092-53.388v0zM100.978 810.407v-488.285c0-14.934 11.999-31.038 26.755-31.038h729.653c14.736 0 26.755 16.125 26.755 31.038v71.269h-256.82c-91.718 0-166.339 75.487-166.339 168.27 0 92.74 74.622 170.544 166.339 170.544h256.842v78.184c0 14.913-12.022 23.059-26.757 23.059h-729.673c-14.736 0.021-26.755-8.147-26.755-23.042v0zM587.539 561.015c0 37.074 22.297 67.299 58.986 67.299 36.711 0 74.070-30.223 74.070-67.299 0-37.159-29.827-67.342-66.527-67.342s-66.529 30.182-66.529 67.342v0zM654.068 527.343c18.317 0 33.274 15.081 33.274 33.672 0 18.505-14.956 33.627-33.274 33.627-18.342 0-33.255-15.121-33.255-33.627 0-18.59 14.914-33.672 33.255-33.672v0zM654.068 527.343z" p-id="12127"></path></svg>