<?xml version="1.0" standalone="no"?><!DOCTYPE svg PUBLIC "-//W3C//DTD SVG 1.1//EN" "http://www.w3.org/Graphics/SVG/1.1/DTD/svg11.dtd"><svg t="1493288271530" class="icon" style="" viewBox="0 0 1024 1024" version="1.1" xmlns="http://www.w3.org/2000/svg" p-id="19397" xmlns:xlink="http://www.w3.org/1999/xlink" width="32" height="32"><defs><style type="text/css"></style></defs><path d="M644.057 916.882h-0.003c-15.804 0-31.163-6.537-41.085-17.482-13.518-14.82-56.346-53.357-91.403-53.357-34.814 0-78.304 38.76-90.795 52.338-9.898 10.76-25.15 17.183-40.802 17.183-7.454 0-14.49-1.43-20.91-4.253l-1.124-0.493-106.559-59.586-1.058-0.74c-19.4-13.58-26.782-40.14-17.171-61.782 0.073-0.168 9.828-22.674 9.828-43.197 0-62.282-50.671-112.954-112.954-112.954h-3.776c-0.229 0.005-0.458 0.008-0.686 0.008-17.842 0-32.368-15.848-37.008-40.375-0.372-1.962-9.094-48.488-9.094-85.144 0-36.655 8.72-83.181 9.092-85.144 4.699-24.84 19.542-40.796 37.695-40.367h3.777c62.284 0 112.954-50.671 112.954-112.955 0-20.518-9.75-43.02-9.85-43.245-9.6-21.621-2.169-48.178 17.31-61.715l1.105-0.768L364 101.085l1.169-0.498c6.332-2.7 13.268-4.069 20.615-4.069 15.614 0 30.9 6.284 40.889 16.811 13.31 13.938 55.382 50.182 89.434 50.182 33.732 0 75.546-35.53 88.811-49.22 9.932-10.314 25.108-16.489 40.57-16.489 7.496 0 14.56 1.419 20.995 4.215l1.14 0.496 108.614 60.344 1.074 0.75c19.431 13.562 26.833 40.122 17.214 61.78-0.072 0.166-9.827 22.674-9.827 43.195 0 62.284 50.67 112.955 112.953 112.955h3.776c18.13-0.404 32.996 15.525 37.696 40.365 0.37 1.964 9.093 48.49 9.093 85.145 0 36.656-8.723 83.182-9.094 85.144-4.701 24.841-19.562 40.738-37.696 40.367h-3.775c-62.282 0-112.953 50.672-112.953 112.954 0 20.519 9.749 43.02 9.848 43.244 9.595 21.607 2.182 48.166-17.27 61.719l-1.087 0.758-110.448 61.045-1.154 0.498c-6.319 2.726-13.228 4.106-20.53 4.106z m-3.355-52.036c0.493 0.324 1.887 0.872 3.354 0.872 0.06 0 0.115-0.001 0.166-0.003l103.193-57.035c-2.49-5.787-13.883-33.87-13.883-63.165 0-87.607 69.004-159.402 155.512-163.896 1.246-6.874 8.007-45.548 8.007-74.569 0-29.015-6.758-67.675-8.006-74.568-86.508-4.494-155.513-76.29-155.513-163.897 0-29.335 11.426-57.457 13.897-63.197l-101.517-56.403a6.089 6.089 0 0 0-0.424-0.014c-1.73 0-3.348 0.63-3.884 0.99-1.703 1.751-16.42 16.674-37.557 31.544-31.288 22.012-60.875 33.173-87.94 33.173-27.33 0-57.154-11.38-88.644-33.827-21.267-15.158-36.05-30.366-37.757-32.148-0.542-0.37-2.176-1.018-3.92-1.018-0.14 0-0.26 0.004-0.364 0.01l-105.15 57.755c2.519 5.86 13.87 33.893 13.87 63.133 0 87.607-69.006 159.403-155.515 163.897-1.246 6.88-8.004 45.55-8.004 74.568 0 29.015 6.758 67.676 8.006 74.569 86.509 4.494 155.512 76.29 155.512 163.896 0 29.392-11.469 57.564-13.912 63.231l99.52 55.65a4.7 4.7 0 0 0 0.22 0.005c1.455 0 2.835-0.533 3.324-0.85 1.86-1.999 16.727-17.731 38.135-33.423 31.914-23.388 62.24-35.248 90.138-35.248 28.164 0 58.72 12.086 90.822 35.922 21.532 15.99 36.456 32.019 38.314 34.046z" fill="" p-id="19398"></path><path d="M511.933 656.906c-82.945 0-150.426-67.48-150.426-150.426 0-82.945 67.481-150.426 150.426-150.426 82.946 0 150.426 67.481 150.426 150.426 0 82.944-67.48 150.426-150.426 150.426z m0-249.686c-54.732 0-99.26 44.528-99.26 99.26 0 54.733 44.528 99.261 99.26 99.261 54.733 0 99.261-44.528 99.261-99.26 0-54.733-44.527-99.261-99.26-99.261z" fill="" p-id="19399"></path></svg>