<?xml version="1.0" standalone="no"?><!DOCTYPE svg PUBLIC "-//W3C//DTD SVG 1.1//EN" "http://www.w3.org/Graphics/SVG/1.1/DTD/svg11.dtd"><svg t="1493345182129" class="icon" style="" viewBox="0 0 1024 1024" version="1.1" xmlns="http://www.w3.org/2000/svg" p-id="2384" xmlns:xlink="http://www.w3.org/1999/xlink" width="32" height="32"><defs><style type="text/css"></style></defs><path d="M903.12192 882.00192H121.20576c-13.696 1.1008-20.4544-6.20032-20.27008-22.50752v-113.60256c0.09216-15.29856 5.31456-22.5024 20.27008-22.5024H865.1776c5.8624 0.1024 9.64096-3.0976 10.99264-9.6v-260.096l-165.24288 106.10176c-12.17024 6.59968-19.28704 4.10112-26.13248-5.69344l-171.73504-245.6064-171.55584 245.6064c-7.57248 10.50112-15.68256 13.39392-26.13248 5.69344L149.94944 453.69344v186.39872c0 36.39808-40.54528 36.39808-40.54528 0V425.59488c24.77568 3.79904 36.31104-10.19904 39.91552-24.20224l164.97664 105.79968c3.96288 2.60096 7.38816 2.00192 10.18368-2.00192l165.69856-237.10208c23.15776 22.20032 13.42976 22.79936 46.67392 0.79872l166.87104 238.8992c1.536 2.40128 3.24608 2.60096 5.04832 1.39776l166.23104-106.50112c4.68992 14.49984 19.65056 27.6992 41.80992 22.20032v320.9984c-2.16064 14.19776-8.91904 21.69856-20.27008 22.50752H143.8208c-1.80224 0-2.34496 0.7936-2.34496 2.60096v60.99968c0 3.39968 0.45056 4.89984 2.88256 4.89984h758.76352c17.30048 0.00512 17.30048 45.11232 0 45.11232z" fill="#999999" p-id="2385"></path><path d="M572.8512 166.49728c-15.29856-15.09888-36.3008-24.6016-59.60192-24.6016a83.968 83.968 0 0 0-59.49952 24.6016 84.3776 84.3776 0 0 0-24.6016 59.60192c0 23.20384 9.29792 44.29824 24.6016 59.60192a84.4032 84.4032 0 0 0 59.49952 24.6016c23.3984 0 44.29824-9.40032 59.60192-24.6016a84.3776 84.3776 0 0 0 24.6016-59.60192 83.98848 83.98848 0 0 0-24.6016-59.60192z m-25.20064 94.09536a49.01376 49.01376 0 0 1-34.49856 14.19776 48.47616 48.47616 0 0 1-34.29888-14.19776 48.75264 48.75264 0 0 1-14.19776-34.49856c0-13.39904 5.4016-25.6 14.19776-34.49856a48.52736 48.52736 0 0 1 34.29888-14.19776 48.59392 48.59392 0 0 1 34.49856 14.19776c8.80128 8.89856 14.30016 21.09952 14.19776 34.49856 0 13.50144-5.39648 25.6-14.19776 34.49856zM165.51424 335.6928a72.46848 72.46848 0 0 0-51.50208-21.4016c-20.1984 0-38.4 8.09984-51.70176 21.49888a72.78592 72.78592 0 0 0-21.2992 51.50208c0 20.10112 8.20224 38.2976 21.4016 51.39968a72.87296 72.87296 0 0 0 51.59936 21.4016c20.10112 0 38.4-8.09984 51.50208-21.4016 13.19936-13.10208 21.2992-31.40096 21.2992-51.50208s-8.00256-38.29248-21.2992-51.49696zM140.41088 413.5936a37.42208 37.42208 0 0 1-26.39872 10.99264 37.20704 37.20704 0 0 1-26.39872-10.99264c-6.90176-6.70208-10.99776-16.10752-10.99776-26.39872 0-10.29632 4.10112-19.59936 10.99776-26.39872a37.4272 37.4272 0 0 1 26.39872-10.99776c10.29632 0 19.59936 4.1984 26.39872 10.99776a37.51424 37.51424 0 0 1 10.90048 26.39872 37.10464 37.10464 0 0 1-10.90048 26.39872zM961.58208 335.6928c-13.10208-13.19936-31.40096-21.4016-51.50208-21.4016s-38.2976 8.09984-51.50208 21.4016c-13.19936 13.10208-21.4016 31.40096-21.4016 51.50208s8.09984 38.2976 21.4016 51.50208c13.10208 13.19936 31.40096 21.4016 51.50208 21.4016s38.4-8.09984 51.50208-21.4016c13.19936-13.10208 21.4016-31.40096 21.4016-51.50208s-8.10496-38.2976-21.4016-51.50208z m-25.00096 77.9008a37.42208 37.42208 0 0 1-26.39872 10.99264 37.4528 37.4528 0 0 1-26.39872-10.99264 37.46304 37.46304 0 0 1-10.99264-26.39872c0-10.29632 4.1984-19.59936 10.99264-26.39872a37.44256 37.44256 0 0 1 26.39872-10.99776c10.30144 0 19.59936 4.1984 26.39872 10.99776 6.70208 6.79936 10.99776 16.1024 10.99776 26.39872 0 10.29632-4.1984 19.59936-10.99776 26.39872z" fill="#999999" p-id="2386"></path></svg>