<?xml version="1.0" standalone="no"?><!DOCTYPE svg PUBLIC "-//W3C//DTD SVG 1.1//EN" "http://www.w3.org/Graphics/SVG/1.1/DTD/svg11.dtd"><svg t="1493345670836" class="icon" style="" viewBox="0 0 1024 1024" version="1.1" xmlns="http://www.w3.org/2000/svg" p-id="5367" xmlns:xlink="http://www.w3.org/1999/xlink" width="32" height="32"><defs><style type="text/css"></style></defs><path d="M894.194632 246.723218c0-33.784454-26.219151-61.186548-58.504462-61.186548L188.307783 185.53667c-32.314986 0-58.504462 27.402093-58.504462 61.186548l0 448.726931c0 33.778314 26.189476 61.179384 58.504462 61.179384l245.437945 0 78.253248 81.833797 78.224596-81.833797 245.468644 0c32.283264 0 58.505485-27.40107 58.505485-61.179384l0-73.124438-0.248663 0c-0.667196-10.639315-8.911974-19.097964-19.253506-19.097964-10.341532 0-18.583241 8.459672-19.253506 19.097964l-0.24764 0 0 52.720735c0 22.546505-17.451464 40.806381-39.004339 40.806381L570.72038 715.852828l-58.721403 61.398372-58.72345-61.398372L207.791533 715.852828c-21.537526 0-38.986943-18.259876-38.986943-40.806381L168.80459 267.127943c0-22.487154 17.449417-40.799218 38.986943-40.799218l608.396467 0c21.553898 0 39.005362 18.311041 39.005362 40.798195l0 193.773262 0.403183 0c-0.061398 0.684592-0.403183 1.337461-0.403183 2.115174 0 11.258415 8.706289 20.37198 19.4991 20.37198 10.762111 0 19.503193-9.114588 19.503193-20.37198 0-0.778736-0.356111-1.431605-0.404206-2.115174l0.404206 0L894.195655 246.723218 894.194632 246.723218M704.498222 520.991792 336.390423 520.991792c-9.794064 0-17.724687 8.647961-17.724687 19.315928 0 10.637268 7.930623 19.284205 17.724687 19.284205l368.107799 0c9.767458 0 17.698081-8.646937 17.698081-19.284205C722.19528 529.639752 714.264657 520.991792 704.498222 520.991792L704.498222 520.991792M704.498222 390.57551 336.390423 390.57551c-9.794064 0-17.724687 8.617261-17.724687 19.315928 0 10.635221 7.930623 19.283182 17.724687 19.283182l368.107799 0c9.767458 0 17.698081-8.646937 17.698081-19.283182C722.19528 399.192771 714.264657 390.57551 704.498222 390.57551L704.498222 390.57551M704.498222 390.57551 704.498222 390.57551z" p-id="5368"></path></svg>