<?xml version="1.0" standalone="no"?><!DOCTYPE svg PUBLIC "-//W3C//DTD SVG 1.1//EN" "http://www.w3.org/Graphics/SVG/1.1/DTD/svg11.dtd"><svg t="1494483934601" class="icon" style="" viewBox="0 0 1024 1024" version="1.1" xmlns="http://www.w3.org/2000/svg" p-id="4310" xmlns:xlink="http://www.w3.org/1999/xlink" width="29" height="29"><defs><style type="text/css"></style></defs><path d="M514.564 973.585c-254.529 0-461.606-207.077-461.606-461.606S260.036 50.372 514.564 50.372 976.171 257.45 976.171 511.98 769.093 973.585 514.564 973.585z m0-874.622c-227.736 0-413.015 185.274-413.015 413.016s185.28 413.015 413.015 413.015S927.58 739.72 927.58 511.98 742.301 98.963 514.564 98.963z" fill="#ffffff" p-id="4311"></path><path d="M474.124 644.291c-6.441 0-12.622-2.483-17.177-7.038l-144.62-144.58c-9.49-9.49-9.49-24.844 0-34.334 9.48-9.49 24.877-9.48 34.355 0.01l127.324 127.329L671.84 385.08c9.414-9.55 24.8-9.678 34.355-0.236 9.556 9.42 9.662 24.806 0.237 34.355L491.42 637.134c-4.543 4.615-10.741 7.157-17.213 7.157h-0.083zM998.733 199.512c-34.633-49.46-99.528-78.604-149.281-43.767l125.415 179.113c49.754-34.838 58.498-85.886 23.866-135.346zM22.552 199.512c-34.633 49.46-15.938 107.476 23.864 135.346l125.416-179.113c-39.803-27.87-114.649-5.694-149.28 43.767z" fill="#ffffff" p-id="4312"></path></svg>