<?xml version="1.0" standalone="no"?><!DOCTYPE svg PUBLIC "-//W3C//DTD SVG 1.1//EN" "http://www.w3.org/Graphics/SVG/1.1/DTD/svg11.dtd"><svg t="1493200648730" class="icon" style="" viewBox="0 0 1285 1024" version="1.1" xmlns="http://www.w3.org/2000/svg" p-id="5868" xmlns:xlink="http://www.w3.org/1999/xlink" width="40.15625" height="32"><defs><style type="text/css"></style></defs><path d="M604.223602 712.347826c-197.167702 254.409938-438.857143 178.086957-477.018634 159.006211-95.403727-25.440994-127.204969-197.167702-6.360248-254.409938 197.167702-63.602484 375.254658 6.360248 502.459627 69.962733C610.583851 705.987578 604.223602 712.347826 604.223602 712.347826zM814.111801 642.385093c89.043478-159.006211 120.84472-311.652174 120.84472-311.652174l-19.080745 0-133.565217 0L636.024845 330.732919 636.024845 216.248447l349.813665 0L985.838509 171.726708 636.024845 171.726708 636.024845 0 477.018634 0l0 171.726708-318.012422 0 0 50.881988 318.012422 0 0 114.484472L209.888199 337.093168l0 50.881988 546.981366 0c0 6.360248 0 6.360248-6.360248 19.080745 0 57.242236-38.161491 133.565217-69.962733 197.167702-407.055901-159.006211-521.540373-63.602484-553.341615-50.881988-267.130435 190.807453-19.080745 432.496894 25.440994 426.136646 286.21118 63.602484 470.658385-57.242236 597.863354-209.888199 6.360248 6.360248 19.080745 6.360248 25.440994 6.360248 89.043478 50.881988 508.819876 248.049689 508.819876 248.049689l0-241.689441C1208.447205 775.950311 979.478261 699.627329 814.111801 642.385093z" p-id="5869"></path></svg>