<?xml version="1.0" standalone="no"?><!DOCTYPE svg PUBLIC "-//W3C//DTD SVG 1.1//EN" "http://www.w3.org/Graphics/SVG/1.1/DTD/svg11.dtd"><svg t="1493200872015" class="icon" style="" viewBox="0 0 3300 1024" version="1.1" xmlns="http://www.w3.org/2000/svg" p-id="9867" xmlns:xlink="http://www.w3.org/1999/xlink" width="103.125" height="32"><defs><style type="text/css"></style></defs><path d="M609.322396 1.144819c-47.491403 5.994061-94.521725 45.185995-110.198499 91.294154-9.682713 28.125977-195.03751 832.713342-195.498592 847.929035-1.383245 41.958424 22.131916 73.311972 61.784932 81.150359 14.754611 3.227571 1257.369482 3.227571 1273.046256 0.461081 44.263832-8.299469 86.683338-44.263832 102.360112-86.683338 5.994061-16.598937 196.420755-836.863076 197.342918-850.234442 2.305408-38.730853-20.28759-70.084401-58.09628-81.611441-8.299469-3.227571-1250.91434-4.610816-1270.740847-2.305408z m-14.754611 261.433259c0 0.922163-1.383245 5.994061-2.76649 10.604877-19.826508 67.317911-39.191935 157.22882-36.886526 168.75586 7.377305 33.658956 55.790872 30.892466 73.311972-4.149735 5.532979-9.221632 42.419506-165.989371 42.419505-177.055328 0-0.461082 58.09628 0.461082 58.557362 0.922163 0 0-0.461082 2.305408-0.922163 5.071897-0.461082 2.305408-10.143795 39.191935-20.748672 81.150359-23.054079 91.294154-26.28165 100.515785-38.269771 118.036886-39.653016 58.557361-171.52235 56.713035-182.127226-2.76649-2.305408-13.371366 25.820569-161.378555 38.730853-201.492652 0.461082-2.305408 68.701156-0.922163 68.701156 0.922163z m878.821501 0c39.653016 8.76055 51.641138 40.575179 33.197874 87.605501-18.443263 47.030322-56.713035 68.240075-124.492028 68.240075-20.28759 0-18.904345-3.227571-32.275711 60.862769-2.305408 11.988121-5.071897 23.515161-5.071898 24.898406-0.922163 4.149734-61.784932 4.149734-61.32385 0 51.641138-221.319161 55.790872-240.223506 56.251953-241.606751l0.461082-2.766489 62.246014 0.461081c49.33573 0.461082 63.629259 0.922163 71.006564 2.305408zM943.145463 347.878171c8.299469 2.305408 14.754611 8.76055 14.754611 14.754611 0 21.209753-43.802751 35.964364-59.940606 20.28759-16.137855-17.060019 17.060019-42.419506 45.185995-35.042201z m-152.156923 16.137856c0 2.305408-0.461082 5.532979-0.922163 7.377305l-0.922163 3.688653 10.143795-5.071898c27.203814-13.832448 53.946545-11.52704 62.707095 5.994061 5.532979 10.143795 4.610816 16.598937-9.221632 80.228196-2.305408 11.52704-5.532979 26.742732-6.916223 34.120037-3.227571 17.5211-0.922163 16.137855-31.353548 16.598937-26.28165 0.461082-26.28165 0.461082-25.820569-2.305408 0-1.383245 3.227571-15.676774 6.916224-31.353548 13.832448-61.323851 14.293529-70.084401 2.305408-70.084401-6.916224 0-16.137855 4.149734-17.060019 6.916224-1.383245 5.994061-17.060019 80.689277-18.443263 88.066583l-1.383245 7.838387-26.742732 0.922163c-32.736793 0.922163-30.431385 3.688653-23.054079-26.28165 9.221632-37.80869 14.754611-64.551422 18.443263-88.066583 4.149734-25.820569 1.383245-23.054079 25.820569-27.203814 11.065958-1.844326 22.592998-3.688653 25.359487-4.610815 8.299469-1.844326 10.143795-1.383245 10.143795 3.227571z m408.057203-0.461082c0 1.844326-0.461082 5.071897-0.922164 7.377306l-0.922163 4.149734 10.143795-5.071898c53.485464-27.664895 74.234135-5.071897 58.557361 65.012504-3.688653 15.676774-8.299469 37.80869-10.143794 48.413566-1.844326 10.604876-4.149734 20.28759-5.071898 21.209753-3.227571 3.227571-53.946545 2.76649-53.485464-0.461081 0-1.383245 3.227571-15.215692 6.916224-30.892467 14.293529-62.707096 14.754611-70.545482 1.844326-71.006564-10.143795 0-15.676774 3.227571-17.5211 11.065958-2.305408 9.221632-15.215692 71.467646-17.5211 82.994686l-1.844326 9.221631-26.742732 0.922163c-32.736793 0.922163-29.970303 4.149734-22.592998-27.664895 8.299469-34.120037 14.754611-66.395748 18.443263-89.910909 3.227571-22.131916 0.922163-19.826508 22.131917-23.054079 9.682713-1.383245 21.209753-3.688653 25.359487-4.610816 11.065958-2.305408 13.371366-1.844326 13.371366 2.305408z m521.944354-1.844326c3.227571 52.563301 4.149734 68.240075 4.610816 68.701156 0.461082 0.461082 7.838387-12.910284 16.598937-29.970303 17.5211-34.581119 13.832448-30.892466 32.736792-33.658956 5.071897-0.922163 15.215692-2.76649 23.054079-4.149734 18.904345-3.688653 18.904345-5.071897-2.766489 32.275711-29.509221 50.718974-70.084401 122.18662-84.37793 148.007189-43.802751 80.228196-43.341669 79.767114-81.150359 80.228195l-22.131916 0.461082 1.844326-6.455142c0.922163-3.227571 3.227571-10.604876 4.610816-15.676774l2.76649-9.221632h6.916223c7.838387 0 9.221632-1.383245 16.598937-13.832447 2.76649-4.149734 6.455142-11.065958 8.76055-15.215693 2.305408-4.149734 10.604876-18.443263 18.443264-31.814629l13.832447-24.437324-3.688652-31.814629c-4.149734-37.347608-9.682713-80.228196-11.988121-94.060644-1.844326-11.988121-1.844326-11.52704 13.371365-13.832447 6.916224-0.922163 17.5211-3.227571 23.976243-4.610816 15.215692-1.844326 17.060019-2.305408 17.982182-0.922163z m-647.819627 1.844326c66.395748 11.988121 42.880587 127.719599-29.04814 143.396373-48.874648 11.065958-82.072522-7.838387-82.072522-46.108158-0.461082-65.934667 48.874648-108.815254 111.120662-97.288215z m494.740541 2.76649c3.688653 1.383245 8.299469 5.071897 10.604876 7.838387 4.149734 4.610816 4.149734 4.610816 4.610816 1.844326 0.461082-3.227571 0-3.227571 34.581119-8.76055 27.664895-4.610816 26.742732-4.610816 24.437324 3.688653-11.52704 48.413566-20.748671 90.371991-24.437324 110.65958-5.532979 30.892466-1.383245 27.203814-35.042201 27.203813l-28.125976-0.461081 0.461081-3.688653c0.461082-3.688653-1.383245-5.071897-3.227571-2.305408-9.682713 15.676774-55.790872 9.221632-68.701156-9.682713-32.736793-47.491403 35.503282-149.390433 84.839012-126.336354zM950.522768 391.680922c0.461082 0.461082 0 4.149734-0.922163 8.299468-6.455142 27.664895-19.365427 82.994685-21.209753 93.599562l-2.305408 12.449203-28.125976 0.922163c-33.658956 0.922163-31.814629 2.305408-24.898406-17.5211 6.455142-19.365427 11.988121-44.263832 15.676774-69.62332 3.227571-22.131916 0-18.904345 24.437324-22.592997 11.52704-1.844326 23.054079-3.688653 25.820569-4.149734 6.455142-2.305408 10.604876-2.305408 11.527039-1.383245zM1101.296447 569.197332c0 0.922163-1.844326 4.610816-4.149735 8.299469-2.305408 4.149734-4.149734 7.377305-4.149734 7.838386 50.718974 0.922163 52.563301 0.922163 52.102219 3.227572l-9.221631 30.431384h-73.773054l-4.149734 3.688653c-9.221632 8.76055-59.479524 19.826508-59.479525 12.910284l9.221632-31.353548h6.916224c11.52704 0 14.754611-2.305408 24.898405-20.748671l8.76055-16.137855c43.802751 0.922163 53.024382 1.383245 53.024383 1.844326z m112.964988 0.461082c0 0.922163-1.383245 5.532979-2.76649 10.143794-1.383245 4.610816-2.76649 8.76055-2.766489 9.221632 0 0.461082 4.149734-2.305408 9.682713-5.532979 18.904345-12.449203 35.0422-15.676774 83.455767-15.676774 19.365427 0 35.503282 0.461082 35.964364 0.461082 1.383245 1.383245-27.664895 94.521725-31.81463 102.821193-5.532979 11.065958-11.52704 17.5211-21.209753 21.670835l-8.299468 3.688652-49.33573 0.461082-49.335729 0.461082-8.76055 29.048139c-17.060019 55.32979-17.5211 51.641138 7.838387 49.33573 20.28759-1.844326 18.904345-3.688653 12.449202 17.060019l-5.071897 17.5211-25.359487 0.461081c-54.407627 0.922163-61.323851-2.305408-55.32979-25.359487 2.76649-11.065958 64.551422-215.786182 65.473585-217.630508 0.922163-0.461082 45.185995 0 45.185995 1.844327z m225.468895-0.461082c0 0.461082-0.922163 3.688653-1.844326 6.916224-2.76649 8.299469-2.76649 8.299469 8.299468 2.766489 14.754611-7.377305 48.874648-10.604876 119.420131-10.604876h22.592997V578.418964c0 11.988121 0.461082 12.910284 11.52704 14.293529l7.838387 0.922163-4.610816 15.215692-4.610816 15.676774-15.215692 0.461082c-39.191935 0.922163-46.108158-3.227571-46.108159-26.281651V587.640595l-2.766489 8.299469-2.76649 8.299468h-8.299468c-4.610816 0-8.76055 0.461082-8.76055 0.461082 0 0.461082-41.958424 139.70772-47.952485 159.534228-0.461082 1.844326 0 2.305408 5.071897 2.305408 7.377305 0 7.838387 0.461082 5.532979 6.916224-2.76649 7.838387-2.76649 7.838387 6.455143 7.838387 5.994061 0 9.682713-0.922163 13.832447-3.227571 5.994061-3.227571 5.532979-2.305408 33.197874-41.497343l11.52704-16.137855h-23.054079c-28.125977 0-25.820569 1.383245-20.748672-15.676774l4.149734-13.832448 28.125977-0.461081 28.125977-0.461082c5.532979-17.982182 6.916224-23.515161 6.916224-23.976242 0-0.461082-12.449203-0.922163-27.203814-1.383245l-27.203813-0.461082 4.610815-15.676773 4.610816-15.215693H1597.420232c42.419506 0 77.000625 0.461082 77.000625 0.922163s-1.844326 7.377305-4.149735 15.676774l-4.149734 14.293529-26.28165 0.461082-25.820569 0.461082c-4.610816 13.371366-5.994061 18.443263-6.916224 20.748671l-0.922163 3.688653h24.898406c29.04814 0 27.203814-1.383245 22.131916 15.676774l-4.149735 13.832447-28.125976 0.461082-28.587058 0.461081-4.149735 5.071898-4.149734 5.071897 11.065958 0.461082 11.065958 0.461081 3.227571 20.748672c3.688653 23.515161 3.688653 23.054079 14.754611 23.054079 8.76055 0 8.76055-1.844326 2.766489 18.443263l-5.071897 16.598937h-16.137856c-28.587058 0-33.658956-4.610816-38.269771-33.197874l-2.76649-19.365426-10.143794 14.293529c-28.125977 38.730853-29.970303 39.653016-66.395749 39.653016-23.054079 0-23.054079 0-20.287589-6.916224 1.383245-3.227571 1.383245-3.227571-5.532979-3.227571s-6.916224 0-8.299469 5.071898l-1.383245 5.071897-23.976242 0.461082-23.976243 0.461081 0.922164-2.766489c2.305408-8.299469 6.916224-7.838387-46.108159-7.838387-45.185995 0-47.952485 0-47.491403-2.305408l4.610816-15.215692c5.071897-15.676774 4.610816-15.215692 9.682713-15.215693 4.149734 0 4.610816-0.461082 6.455142-6.455142 41.036261-135.096904 53.485464-177.51641 55.32979-183.510471l3.227572-10.604876h24.437324c13.371366 0 23.976242 0.461082 23.976242 0.922163z m-304.774928 73.773054l-9.221631 29.970303h-52.102219c-5.071897 16.598937-6.916224 22.592998-7.377306 23.976242-0.461082 2.305408 1.383245 2.305408 25.359487 2.305408 14.754611 0 26.28165 0.461082 26.281651 1.383245 0 0.461082-0.461082 2.76649-1.383245 5.071897-0.461082 2.305408-2.76649 8.76055-4.610816 15.215692l-3.227571 11.52704H1055.64937l-5.994061 20.28759c-8.76055 29.04814-7.838387 29.970303 24.898406 25.359487 13.832448-1.844326 12.910284-3.227571 6.916224 16.598937l-5.071898 17.060019h-35.964364c-56.251953 0-57.174117-1.383245-42.419505-50.257893 4.610816-15.215692 8.299469-28.125977 8.299468-28.587058 0-0.461082-6.455142-0.461082-14.293529-0.461082-7.838387 0-14.293529-0.461082-14.293529-0.922163 6.455142-21.670834 8.299469-28.587058 8.76055-29.970303 0.461082-1.844326 2.305408-2.305408 15.676774-2.305408h14.754611l7.377305-26.28165h-13.832448c-10.604876 0-13.832448-0.461082-13.832447-1.844327 0-1.844326 7.838387-27.203814 8.76055-29.04814 0.922163-1.383245 130.486089-0.922163 129.563925 0.922164z m166.450452 62.707095c-0.461082 1.383245-1.383245 6.455142-2.766489 11.52704-5.071897 23.976242-11.988121 29.509221-40.114098 30.892466-9.682713 0.461082-17.982182 1.383245-18.443263 1.844326-2.305408 2.305408-1.844326 23.054079 0.461081 26.281651l2.305408 3.227571 17.060019-0.922164c9.221632-0.461082 17.060019-0.922163 17.060019-0.461081 0 1.383245-9.221632 31.814629-10.143795 32.736792-1.383245 2.305408-54.407627 0.461082-61.323851-1.844326-10.604876-3.688653-10.604876-2.305408-9.221632-56.251953l1.383245-47.491403 22.131916-0.461082 22.131916-0.461082v18.443264h8.76055c9.682713 0 10.604876-0.922163 14.293529-12.910285l2.305408-6.916223h17.5211c16.137855 0.461082 17.5211 0.461082 16.598937 2.766489z m81.150359-367.943105l-9.221631 41.036261 12.910284 0.461082c65.934667 1.844326 93.599562-74.695217 29.04814-79.767114-10.143795-0.922163-19.365427-1.844326-21.209753-1.844326-1.844326-0.922163-2.76649 1.844326-11.52704 40.114097zM1039.972596 396.291738c-16.598937 6.916224-31.814629 68.701156-18.904345 78.383869 9.221632 7.377305 23.054079-5.071897 29.509221-26.28165 12.449203-40.575179 8.299469-59.940606-10.604876-52.102219z m512.722722 4.149734c-17.060019 8.76055-30.431385 69.623319-16.598937 76.539543 17.5211 9.221632 39.191935-23.515161 39.191935-58.557361-0.461082-17.060019-9.682713-24.437324-22.592998-17.982182zM1205.500885 605.161696l-4.610816 15.215692c-2.305408 7.377305-4.610816 14.293529-5.071897 15.215692-0.461082 0.922163 4.149734-0.922163 10.143794-4.149734 16.598937-8.76055 22.592998-10.143795 47.491404-11.065958l22.131916-0.922163c3.227571-10.604876 4.149734-14.293529 4.149734-15.215693 0-1.383245-73.311972-1.383245-74.234135 0.922164z m-15.215692 49.335729l-3.688653 13.371366 73.773053-0.461081 4.610816-13.832448c-57.635198 0-74.695217 0-74.695216 0.922163z m233.768363-31.353548c-3.227571 10.604876-5.532979 19.826508-5.071897 19.826509 0.461082 0 5.071897-1.844326 10.604876-3.688653 5.532979-2.305408 14.293529-4.610816 19.826508-5.071898 5.532979-0.922163 9.682713-1.844326 10.143795-1.844326 0.461082-0.461082 8.299469-26.742732 8.299469-27.664895 0-0.461082-8.299469-0.922163-18.904345-0.922163h-18.904345l-5.994061 19.365426z m-13.371366 44.263833c-0.461082 0.461082-3.227571 9.682713-5.994061 20.287589-3.227571 10.604876-5.994061 19.365427-5.99406 19.826508-0.461082 0.461082 4.149734-1.383245 10.143795-3.688652 5.994061-2.305408 14.754611-5.532979 20.287589-6.455142 11.52704-1.844326 11.988121-2.305408 12.910285-6.916224 0.461082-2.305408 2.305408-8.299469 4.149734-13.832448l3.227571-10.143795h-18.904345c-11.065958 0-19.826508 0.461082-19.826508 0.922164z m-29.970303 99.13254l37.347608 0.922163c7.838387-25.820569 10.143795-34.120037 10.604877-35.0422l-37.347608-1.844326-10.604877 35.964363z" fill="" p-id="9868"></path></svg>