<?xml version="1.0" standalone="no"?><!DOCTYPE svg PUBLIC "-//W3C//DTD SVG 1.1//EN" "http://www.w3.org/Graphics/SVG/1.1/DTD/svg11.dtd"><svg t="1494485687064" class="icon" style="" viewBox="0 0 1024 1024" version="1.1" xmlns="http://www.w3.org/2000/svg" p-id="5032" xmlns:xlink="http://www.w3.org/1999/xlink" width="29" height="29"><defs><style type="text/css"></style></defs><path d="M512 933.875c-232.608 0-421.875-189.267-421.875-421.875s189.267-421.875 421.875-421.875 421.875 189.267 421.875 421.875-189.267 421.875-421.875 421.875zM512 155.054c-196.848 0-356.946 160.098-356.946 356.946s160.098 356.946 356.946 356.946 356.946-160.098 356.946-356.946-160.098-356.946-356.946-356.946zM512.082 804.099c-17.881 0-32.465-14.502-32.465-32.465v-324.563c0-17.88 14.502-32.465 32.465-32.465s32.465 14.502 32.465 32.465v324.482c-0.083 17.963-14.585 32.547-32.465 32.547zM641.776 544.465h-259.553c-17.88 0-32.465-14.502-32.465-32.465s14.502-32.465 32.465-32.465h259.634c17.88 0 32.465 14.502 32.465 32.465s-14.585 32.465-32.547 32.465zM512 479.535c-8.322 0-16.644-3.213-22.907-9.475-12.69-12.69-12.69-33.206 0-45.895l129.776-129.776c12.69-12.689 33.206-12.689 45.895 0s12.69 33.206 0 45.895l-129.776 129.776c-6.345 6.345-14.667 9.475-22.988 9.475zM512.247 479.453c-8.322 0-16.644-3.213-22.988-9.475l-129.776-129.859c-12.69-12.69-12.69-33.206 0-45.895s33.206-12.69 45.895 0l129.776 129.776c12.69 12.69 12.69 33.206 0 45.895-6.262 6.345-14.585 9.558-22.907 9.558zM641.776 674.241h-259.553c-17.88 0-32.465-14.502-32.465-32.465s14.502-32.465 32.465-32.465h259.634c17.88 0 32.465 14.502 32.465 32.465s-14.585 32.465-32.547 32.465z" p-id="5033" fill="#999999"></path></svg>