<?xml version="1.0" standalone="no"?><!DOCTYPE svg PUBLIC "-//W3C//DTD SVG 1.1//EN" "http://www.w3.org/Graphics/SVG/1.1/DTD/svg11.dtd"><svg t="1494497597759" class="icon" style="" viewBox="0 0 1024 1024" version="1.1" xmlns="http://www.w3.org/2000/svg" p-id="7121" xmlns:xlink="http://www.w3.org/1999/xlink" width="29" height="29"><defs><style type="text/css"></style></defs><path d="M960 1024H64c-36.266667 0-64-27.733333-64-64V746.666667h21.333333c36.266667 0 64-27.733333 64-64s-27.733333-64-64-64H0V405.333333c0-36.266667 27.733333-64 64-64h896c36.266667 0 64 27.733333 64 64v234.666667h-21.333333c-36.266667 0-64 27.733333-64 64s27.733333 64 64 64h21.333333v192c0 36.266667-27.733333 64-64 64zM42.666667 787.2V960c0 12.8 8.533333 21.333333 21.333333 21.333333h896c12.8 0 21.333333-8.533333 21.333333-21.333333v-151.466667c-49.066667-10.666667-85.333333-53.333333-85.333333-104.533333s36.266667-93.866667 85.333333-104.533333V405.333333c0-12.8-8.533333-21.333333-21.333333-21.333333H64c-12.8 0-21.333333 8.533333-21.333333 21.333333v172.8c49.066667 10.666667 85.333333 53.333333 85.333333 104.533334s-36.266667 93.866667-85.333333 104.533333z" fill="#999999" p-id="7122"></path><path d="M356.266667 185.6l200.533333-138.666667c10.666667-6.4 23.466667-4.266667 29.866667 6.4l219.733333 317.866667h51.2l-236.8-341.333333C601.6 0 561.066667-6.4 531.2 12.8L313.6 164.266667l42.666667 21.333333z" fill="#999999" p-id="7123"></path><path d="M128 369.066667L243.2 170.666667c2.133333-4.266667 6.4-8.533333 12.8-10.666667 6.4-2.133333 10.666667 0 17.066667 2.133333l358.4 206.933334h85.333333L294.4 125.866667c-14.933333-8.533333-32-10.666667-49.066667-6.4-17.066667 4.266667-29.866667 14.933333-38.4 29.866666l-128 219.733334H128zM654.933333 710.4c10.666667 0 23.466667 8.533333 23.466667 23.466667 0 10.666667-8.533333 23.466667-23.466667 23.466666h-119.466666v123.733334c0 10.666667-8.533333 23.466667-23.466667 23.466666-10.666667 0-23.466667-8.533333-23.466667-23.466666v-123.733334h-119.466666c-10.666667 0-23.466667-8.533333-23.466667-23.466666 0-10.666667 8.533333-23.466667 23.466667-23.466667h119.466666v-59.733333h-119.466666c-10.666667 0-23.466667-8.533333-23.466667-23.466667 0-10.666667 8.533333-23.466667 23.466667-23.466667h87.466666l-104.533333-104.533333c-8.533333-8.533333-8.533333-23.466667 0-32s23.466667-8.533333 32 0l125.866667 125.866667 125.866666-125.866667c8.533333-8.533333 23.466667-8.533333 32 0s8.533333 23.466667 0 32l-104.533333 104.533333h87.466667c10.666667 0 23.466667 8.533333 23.466666 23.466667 0 10.666667-8.533333 23.466667-23.466666 23.466667h-119.466667v59.733333h123.733333z" fill="#999999" p-id="7124"></path></svg>