<?xml version="1.0" standalone="no"?><!DOCTYPE svg PUBLIC "-//W3C//DTD SVG 1.1//EN" "http://www.w3.org/Graphics/SVG/1.1/DTD/svg11.dtd"><svg t="1495173619418" class="icon" style="" viewBox="0 0 1025 1024" version="1.1" xmlns="http://www.w3.org/2000/svg" p-id="2387" xmlns:xlink="http://www.w3.org/1999/xlink" width="48.046875" height="48"><defs><style type="text/css"></style></defs><path d="M961.014853 757.875706c9.256497-16.777401 17.355932-34.133333 24.876836-52.067797 26.033898-63.638418 38.761582-130.748023 38.183051-200.171751-3.471186-280.00904-232.569492-505.636158-512-505.636158-1.157062 0-2.892655 0-4.049718 0-137.690395 1.157062-266.702825 56.117514-362.738983 155.046328-96.036158 98.928814-147.525424 229.098305-145.211299 366.788701 2.314124 131.905085 55.538983 256.289266 149.261017 350.589831 93.722034 94.300565 218.106215 148.103955 349.432768 151.575141 4.049718 0 8.677966 0 12.727684 0 27.769492 0 55.538983-2.314124 82.151412-6.363842 57.853107-9.256497 112.813559-28.348023 163.724294-56.117514 26.612429 32.976271 67.109605 54.381921 112.813559 54.381921 79.837288 0 144.632768-64.79548 144.632768-144.632768C1014.818243 825.563842 993.991125 784.488136 961.014853 757.875706zM747.536887 947.055367c-48.59661 26.612429-101.242938 44.546893-156.20339 53.224859-30.083616 4.628249-61.324294 6.942373-91.986441 6.363842-264.967232-6.363842-476.709605-219.841808-481.916384-484.80904-2.314124-133.062147 47.439548-259.181921 140.00452-354.639548 93.143503-95.457627 217.527684-148.682486 350.589831-149.839548 1.157062 0 2.892655 0 4.049718 0 270.174011 0 491.751412 218.684746 494.644068 488.858757 0.578531 67.109605-11.570621 131.905085-36.447458 193.229379-6.942373 16.19887-14.463277 32.39774-23.141243 48.59661-21.984181-13.884746-48.018079-21.40565-76.366102-21.40565-79.837288 0-144.632768 64.79548-144.632768 144.632768C725.552707 899.037288 733.652142 925.071186 747.536887 947.055367zM973.742537 886.309605 892.169656 886.309605l0 91.40791-42.811299 0L849.358356 886.309605 766.628413 886.309605l0-39.918644 82.151412 0L848.779825 764.239548l42.811299 0 0 82.151412 82.151412 0L973.742537 886.309605zM589.019373 475.552542 337.936887 475.552542c-37.025989 0-66.531073 30.083616-66.531073 66.531073l0 129.012429C271.405814 708.122034 300.910899 738.20565 337.936887 738.20565l251.082486 0c37.025989 0 66.531073-30.083616 66.531073-66.531073L655.550447 542.083616C655.550447 505.636158 626.045362 475.552542 589.019373 475.552542zM361.07813 454.146893c53.80339-5.20678 97.771751-49.175141 102.978531-102.978531C470.999034 278.273446 410.253272 217.527684 337.358356 224.470056 283.554966 230.255367 240.165136 273.645198 234.379825 327.448588 227.437452 400.343503 288.183215 461.089266 361.07813 454.146893zM705.304119 327.448588c-5.20678-53.80339-49.175141-97.771751-102.978531-102.978531C529.430673 217.527684 468.68491 278.273446 476.205814 351.168362c5.20678 53.80339 49.175141 97.771751 102.978531 102.978531C651.500729 461.089266 712.246492 400.343503 705.304119 327.448588zM800.761746 494.644068l-107.60678 33.554802c-9.835028 2.892655-16.777401 12.149153-16.777401 22.562712l0 112.813559c0 9.835028 6.363842 19.091525 16.19887 21.984181l108.185311 33.554802L800.761746 494.644068z" p-id="2388"></path></svg>