<?xml version="1.0" standalone="no"?><!DOCTYPE svg PUBLIC "-//W3C//DTD SVG 1.1//EN" "http://www.w3.org/Graphics/SVG/1.1/DTD/svg11.dtd"><svg t="1495101388873" class="icon" style="" viewBox="0 0 1024 1024" version="1.1" xmlns="http://www.w3.org/2000/svg" p-id="7153" xmlns:xlink="http://www.w3.org/1999/xlink" width="24" height="24"><defs><style type="text/css"></style></defs><path d="M865.860965 319.691113 865.860965 155.714313c0-51.852988-41.832969-94.053462-93.234981-94.053462L248.815393 61.660851c-51.403171 0-93.23614 42.200474-93.23614 94.053462l0 164.102007c-49.09728 2.822949-88.14208 40.266726-88.14208 86.029796l0 470.169929c0 47.595958 42.200474 86.321945 94.053462 86.321945l701.130026 0c51.855307 0 94.054622-38.725987 94.054622-86.321945L956.675282 405.846116C956.675282 359.256449 916.207994 321.277065 865.860965 319.691113zM865.860965 371.111674c14.083442 0.884563 26.208789 7.274745 33.178632 16.644384-5.549674 0.638786-10.986893 2.693105-15.242764 6.951294l-17.935868 17.935868L865.860965 371.111674zM206.881562 155.714313c0-23.579447 18.8042-42.752312 41.93383-42.752312l523.811751 0c23.12963 0 41.932671 19.171705 41.932671 42.752312l0 307.780241c0 0.140278 0.040576 0.270122 0.042895 0.409241L534.101312 744.406351c-11.774073 11.774073-32.266246 11.806534-44.072779 0L206.881562 461.257063 206.881562 155.714313zM155.579252 371.331945l0 38.622807-15.247401-15.246242c-4.261667-4.262826-9.701205-6.318304-15.256675-6.954772C131.599839 378.98231 142.631946 372.818196 155.579252 371.331945zM906.786186 877.823428c0 30.142368-44.05423 32.461012-44.05423 32.461012s-681.681243-1.159322-707.186324 1.159322-44.05423-35.938977-44.05423-35.938977l0-433.586369 403.444001 394.169426 392.876782-383.844506C907.812185 452.243335 906.786186 847.68106 906.786186 877.823428z" p-id="7154" fill="#ffffff"></path><path d="M384.618353 414.097009l106.931209 106.928891c5.00943 5.010589 11.572351 7.514724 18.135272 7.514724 6.561762 0 13.125842-2.504135 18.13759-7.514724l106.928891-106.928891c0.733851-0.71878 1.403939-1.486251 2.019539-2.271111 36.974252-39.612868 36.140699-102.103793-2.404434-140.631536-33.667866-33.616855-85.535925-38.526583-124.532034-14.661943-15.931401-9.986398-34.384327-15.329713-53.640662-15.329713-27.053935 0-52.487137 10.537076-71.591602 29.658931-19.120695 19.104465-29.66009 44.538827-29.66009 71.592761 0 26.636579 10.220581 51.719666 28.807988 70.740659C384.034055 413.495321 384.318089 413.795586 384.618353 414.097009zM417.336734 300.761706c14.093876-14.106628 32.8575-21.88104 52.816384-21.88104 14.20633 0 27.820246 3.941694 39.572292 11.309185 28.769731-17.606621 67.034308-13.984899 91.873937 10.816473 28.434687 28.424253 29.051446 74.527005 1.772603 103.75119-0.455613 0.578502-0.948325 1.14541-1.489729 1.67522l-78.886055 78.887214c-3.695918 3.695918-8.538405 5.542718-13.380893 5.542718s-9.683815-1.847959-13.378574-5.542718l-78.888373-78.887214c-0.22143-0.22143-0.431268-0.44402-0.639946-0.665451-13.713618-14.032432-21.253847-32.537527-21.253847-52.188032C395.454535 333.619206 403.230106 314.855582 417.336734 300.761706z" p-id="7155" fill="#ffffff"></path></svg>