<?xml version="1.0" standalone="no"?><!DOCTYPE svg PUBLIC "-//W3C//DTD SVG 1.1//EN" "http://www.w3.org/Graphics/SVG/1.1/DTD/svg11.dtd"><svg t="1493879502308" class="icon" style="" viewBox="0 0 1024 1024" version="1.1" xmlns="http://www.w3.org/2000/svg" p-id="3907" xmlns:xlink="http://www.w3.org/1999/xlink" width="32" height="32"><defs><style type="text/css"></style></defs><path d="M272.1 836.6c-46.9 0-85-38.4-85-85.7V478.5c0-46.3 37.1-84.5 82.9-85.7V263.5c0-42 33.9-76.1 75.5-76.1h333c41.6 0 75.5 34.2 75.5 76.1v129.3c45.8 1.1 82.9 39.4 82.9 85.7V751c0 47.3-38.1 85.7-85 85.7H272.1zM229 750.9c0 24 19.3 43.5 43.1 43.5h479.8c23.8 0 43.1-19.5 43.1-43.5V514.5l-41 21.7v3.3h-6.2L510 665.1 229 516.6v234.3z m281-133.4l202.1-106.8V263.5c0-18.7-15.1-34-33.6-34h-333c-18.5 0-33.6 15.2-33.6 34v249.3L510 617.5zM270 490.7V435c-19.6 1-35.8 15-39.8 34.6l39.8 21.1z m484-2.2l39.4-20.8c-4.7-18.5-20.7-31.8-39.4-32.7v53.5z m-345.7-49.3c-17.8-15.1-28-37.3-28-61 0-43.7 34.8-79.2 77.5-79.2 20.5 0 39.7 8 54.3 22.7 14.5-14.6 33.8-22.7 54.3-22.7 42.7 0 77.5 35.5 77.5 79.2 0 20.8-7.8 40.4-21.9 55.2l-0.1 0.1L512 537.4l-103.7-98.2z m49.4-93c-17.1 0-31.1 14.4-31.1 32 0 9.7 4.2 18.7 11.4 24.8l0.8 0.7L512 473l77.1-73c5.3-5.8 8.2-13.6 8.2-21.7 0-17.7-14-32-31.1-32-9.3 0-18 4.2-24 11.6L512 395.5l-30.3-37.7c-6-7.3-14.7-11.6-24-11.6z" p-id="3908"></path></svg>