<?xml version="1.0" standalone="no"?><!DOCTYPE svg PUBLIC "-//W3C//DTD SVG 1.1//EN" "http://www.w3.org/Graphics/SVG/1.1/DTD/svg11.dtd"><svg t="1493882517457" class="icon" style="" viewBox="0 0 1030 1024" version="1.1" xmlns="http://www.w3.org/2000/svg" p-id="4709" xmlns:xlink="http://www.w3.org/1999/xlink" width="32.1875" height="32"><defs><style type="text/css"></style></defs><path d="M897.216 621.083c-33.541-48.373-78.843-84.675-131.409-105.604 23.243-16.265 42.728-38.072 56.897-63.532 16.382-29.444 25.032-62.979 25.032-97.072 0-106.497-82.496-193.052-183.769-193.052-14.376 0-26.108 11.733-26.108 26.124 0 14.404 11.734 26.118 26.108 26.118 72.507 0 131.505 63.206 131.505 140.812 0 77.701-58.998 140.916-131.505 140.916-14.376 0-26.108 11.726-26.108 26.11v0.11c0 14.396 11.734 26.124 26.108 26.124 130.399 0 236.555 113.129 236.555 252.157 0 14.392 11.721 26.123 26.125 26.123 14.39 0 26.122-11.733 26.122-26.123-0.124-64.98-19.275-126.859-55.553-179.21M627.448 576.694c-27.341-19.372-57.228-34.758-88.667-45.6 66.526-40.41 107.374-112.46 107.374-190.727 0-122.977-100.070-223.031-223.051-223.031-123.094 0-223.163 100.054-223.163 223.141 0 41.843 11.734 82.695 33.886 118.118 18.817 29.991 44.278 55.014 74.388 73.052-32.116 10.951-62.335 26.448-90.105 46.159-30.331 21.469-56.899 47.371-79.272 77.037-46.257 61.768-70.721 135.153-70.721 212.419 0 14.392 11.734 26.124 26.124 26.124s26.124-11.734 26.124-26.124c0-80.475 31.437-156.405 88.46-213.636 56.884-57.118 132.143-88.556 211.969-88.667 2.642 0.22 5.314 0 7.957-0.555l2.117-0.442c77.696 1.551 150.644 32.875 206.211 88.667 56.996 57.231 88.334 133.050 88.334 213.636 0 14.392 11.72 26.124 26.125 26.124 14.378 0 26.097-11.734 26.097-26.124 0-77.266-24.435-150.65-70.818-212.424-22.362-29.77-49.055-55.673-79.372-77.147M423.107 169.572c94.201 0 170.914 76.712 170.914 170.906s-76.712 170.907-170.914 170.907c-94.188 0-170.914-76.712-170.914-170.907 0-94.306 76.724-170.906 170.914-170.906z" p-id="4710" fill="#999999"></path></svg>