<?xml version="1.0" standalone="no"?><!DOCTYPE svg PUBLIC "-//W3C//DTD SVG 1.1//EN" "http://www.w3.org/Graphics/SVG/1.1/DTD/svg11.dtd"><svg t="1494235929904" class="icon" style="" viewBox="0 0 1024 1024" version="1.1" xmlns="http://www.w3.org/2000/svg" p-id="9877" xmlns:xlink="http://www.w3.org/1999/xlink" width="32" height="32"><defs><style type="text/css"></style></defs><path d="M822.547849 960.794469 545.760918 960.794469 545.760918 684.007539 891.743814 684.007539l0 207.589942C891.743814 929.813874 860.763219 960.794469 822.547849 960.794469zM545.760918 338.02362l-34.597983 0-34.597983 0 0 276.78693L130.580011 614.81055 130.580011 407.220608c0-38.217417 30.981618-69.196988 69.196988-69.196988l121.093962 0c0 0-191.783954-225.081315 0-224.889957 106.746186 0 190.290951 103.794971 190.290951 103.794971S595.035158 113.134687 702.198853 113.134687c192.536085-0.192382 0 224.889957 0 224.889957L822.547849 338.024643c38.21537 0 69.196988 30.979572 69.196988 69.196988l0 207.589942L545.760918 614.811574 545.760918 338.02362zM407.366941 199.630666c-81.788771-62.681598-103.794971-34.597983-103.794971-34.597983s-32.149211 34.935674 34.597983 103.794971c90.865497 63.745836 121.093962 34.597983 121.093962 34.597983S495.213685 268.794909 407.366941 199.630666zM563.263547 303.425637c0 0 30.346145 29.147854 121.568776-34.597983 67.008136-68.859297 34.733059-103.794971 34.733059-103.794971s-22.091134-28.083615-104.201224 34.597983C527.172561 268.794909 563.263547 303.425637 563.263547 303.425637zM476.56393 960.794469 199.776999 960.794469c-38.21537 0-69.196988-30.981618-69.196988-69.196988L130.580011 684.007539l345.983919 0L476.56393 960.794469z" p-id="9878" fill="#999999"></path></svg>