<?xml version="1.0" standalone="no"?><!DOCTYPE svg PUBLIC "-//W3C//DTD SVG 1.1//EN" "http://www.w3.org/Graphics/SVG/1.1/DTD/svg11.dtd"><svg t="1493882829567" class="icon" style="" viewBox="0 0 1038 1024" version="1.1" xmlns="http://www.w3.org/2000/svg" p-id="11738" xmlns:xlink="http://www.w3.org/1999/xlink" width="32.4375" height="32"><defs><style type="text/css"></style></defs><path d="M956.654172 861.041558 335.1205 861.041558l-32.469506 0L64.929802 861.041558c-35.857672 0-64.929802-17.513886-64.929802-53.408397l0-65.052598L0 677.534104l0-65.049528c53.803393 0 91.622744-43.706431 91.622744-97.573269 0-53.903677-37.81935-97.571223-91.622744-97.571223L0 352.286462l0-65.047482 0-60.687174c0-35.95591 29.072129-63.593364 64.929802-63.593364l237.721193 0 32.469506 0 621.533672 0c35.855626 0 64.929802 27.637454 64.929802 63.593364l0 93.204775 0 32.530904 0 65.049528c-53.798277 0-85.850274 43.670615-85.850274 97.575316 0 53.866838 32.051997 97.573269 85.850274 97.573269l0 65.049528 0 97.571223 0 32.526811c0 35.895535-17.530258 53.408397-53.385884 53.408397l0 0L956.654172 861.041558zM968.19809 663.812591c-57.291844-25.152866-97.393167-82.268702-97.393167-148.901285 0-66.670445 40.1003-123.81391 97.393167-148.906401L968.19809 248.15994c0-17.97335-14.523785-32.521694-32.464389-32.521694L351.347067 215.638245l0 55.339376c0 8.952906-7.258311 16.262382-16.232706 16.262382l-32.462343 0c-8.968256 0-16.234753-7.309476-16.234753-16.262382l0-55.339376L84.406388 215.638245c-17.945721 0-32.464389 14.549368-32.464389 32.521694l0 117.844965c57.291844 25.091468 104.610546 82.235956 104.610546 148.906401 0 66.639746-47.317679 123.748419-104.610546 148.901285l0 112.754017c0 17.947767 14.524808 32.521694 32.464389 32.521694L286.416242 809.088302l0-50.246381c0-8.988722 7.266497-16.262382 16.234753-16.262382l32.469506 0c8.968256 0 16.232706 7.27366 16.232706 16.262382l0 50.246381 584.380494 0c17.940604 0 32.464389-14.57495 32.464389-32.521694L968.19809 663.812591 968.19809 663.812591 968.19809 663.812591zM335.1205 677.534104l-32.469506 0c-8.968256 0-16.234753-7.30743-16.234753-16.263405l0-97.576339c0-8.989745 7.266497-16.263405 16.234753-16.263405l32.469506 0c8.968256 0 16.232706 7.27366 16.232706 16.263405l0 97.576339C351.347067 670.226674 344.087733 677.534104 335.1205 677.534104L335.1205 677.534104 335.1205 677.534104zM335.1205 482.382449l-32.469506 0c-8.968256 0-16.234753-7.30743-16.234753-16.260335l0-97.573269c0-8.988722 7.266497-16.262382 16.234753-16.262382l32.469506 0c8.968256 0 16.232706 7.27366 16.232706 16.262382l0 97.573269C351.347067 475.075019 344.087733 482.382449 335.1205 482.382449L335.1205 482.382449 335.1205 482.382449zM335.1205 482.382449" p-id="11739" fill="#999999"></path></svg>