<?xml version="1.0" standalone="no"?><!DOCTYPE svg PUBLIC "-//W3C//DTD SVG 1.1//EN" "http://www.w3.org/Graphics/SVG/1.1/DTD/svg11.dtd"><svg t="1493200408093" class="icon" style="" viewBox="0 0 1024 1024" version="1.1" xmlns="http://www.w3.org/2000/svg" p-id="5193" xmlns:xlink="http://www.w3.org/1999/xlink" width="32" height="32"><defs><style type="text/css"></style></defs><path d="M457.041 864.186c20.52 0 41.94-7.080 63.659-20.7 51.78-33.059 57.72-87.3 52.56-121.32l250.86-126.419c3.84 37.32 3.12 76.020-5.040 87-16.020 21.9-144.12 88.441-230.1 128.4-8.82 4.2-12.78 14.76-8.64 23.58 4.261 8.82 14.76 12.78 23.58 8.4 35.82-16.56 216.24-102.3 243.72-139.2 23.82-32.46 11.040-120.72 8.34-138.001-0.9-5.76-4.559-10.38-9.72-13.020-4.861-2.58-10.8-2.58-15.901 0l-285.36 143.761c-7.62 3.9-11.46 12.72-8.88 21.060 0.66 2.52 17.7 62.76-34.38 96.24-22.56 14.040-42.72 18.24-61.62 12.54-38.64-11.76-64.38-63-73.679-84.42-43.080-98.759-138.42-380.76-163.62-455.34l353.64-83.52 133.92 355.38c3.18 9.24 13.62 13.62 22.86 10.38 8.94-3.54 13.56-13.74 10.020-22.74l-139.26-370.020c-3.24-8.28-11.88-12.9-20.7-10.919l-387.36 91.080c-4.861 1.44-9 4.62-11.4 8.76-2.46 4.439-3 9.6-1.44 14.34 4.98 14.58 121.020 361.62 170.94 476.76 13.921 32.16 45.121 88.32 95.88 103.92 8.82 2.76 18 4.021 27.12 4.020zM491.42 295.985c0 14.219 11.64 25.5 25.86 25.5v0c13.979 0 25.56-11.279 25.56-25.5v0c0-14.219-11.519-25.56-25.56-25.56v0c-14.16 0-25.86 11.34-25.86 25.56v0zM294.98 380.405c1.561 0 3.54-0.3 5.1-0.72l164.94-47.581c9.42-2.58 14.64-12.48 12.060-21.78-2.64-9.48-12.42-14.82-21.78-12.060l-165.12 47.58c-9.48 2.76-14.88 12.48-12.12 21.84 2.28 7.86 9.36 12.72 16.92 12.72zM532.82 403.746c0 14.219 11.34 25.68 25.68 25.68v0c14.1 0 25.68-11.46 25.68-25.68v0c0-14.041-11.52-25.62-25.68-25.62v0c-14.34 0-25.68 11.58-25.68 25.62v0zM336.14 488.405c1.561 0 3.36-0.12 4.98-0.72l165.12-47.52c9.36-2.76 14.76-12.42 12-21.9-2.58-9.36-12.42-14.94-21.78-12.18l-165.18 47.76c-9.3 2.52-14.82 12.42-12.18 21.84 2.4 7.56 9.36 12.72 17.039 12.72zM573.98 511.746c0 14.1 11.34 25.62 25.56 25.62v0c14.28 0 25.92-11.52 25.92-25.62v0c0-14.1-11.58-25.68-25.92-25.68v0c-14.16-0.060-25.56 11.58-25.56 25.681v0zM377.36 596.286c1.739 0 3.421-0.24 5.040-0.78l165.060-47.701c9.24-2.64 14.76-12.42 12-21.72-2.76-9.42-12.42-14.88-21.78-11.999l-165.18 47.52c-9.42 2.88-14.939 12.48-12 21.84 2.22 7.801 9.36 12.84 16.86 12.84z" p-id="5194"></path></svg>