<?xml version="1.0" standalone="no"?><!DOCTYPE svg PUBLIC "-//W3C//DTD SVG 1.1//EN" "http://www.w3.org/Graphics/SVG/1.1/DTD/svg11.dtd"><svg t="1494482563156" class="icon" style="" viewBox="0 0 1088 1024" version="1.1" xmlns="http://www.w3.org/2000/svg" p-id="3564" xmlns:xlink="http://www.w3.org/1999/xlink" width="30.8125" height="29"><defs><style type="text/css"></style></defs><path d="M0 0l1088 0 0 192L0 192 0 0z" p-id="3565" fill="#999999"></path><path d="M1024 192l64 0 0 832-64 0L1024 192z" p-id="3566" fill="#999999"></path><path d="M0 960l1024 0 0 64L0 1024 0 960z" p-id="3567" fill="#999999"></path><path d="M0 192l64 0 0 832L0 1024 0 192z" p-id="3568" fill="#999999"></path><path d="M192 320l128 0 0 128L192 448 192 320z" p-id="3569" fill="#999999"></path><path d="M384 320l128 0 0 128L384 448 384 320z" p-id="3570" fill="#999999"></path><path d="M576 320l128 0 0 128L576 448 576 320z" p-id="3571" fill="#999999"></path><path d="M768 320l128 0 0 128-128 0L768 320z" p-id="3572" fill="#999999"></path><path d="M768 512l128 0 0 128-128 0L768 512z" p-id="3573" fill="#999999"></path><path d="M576 512l128 0 0 128L576 640 576 512z" p-id="3574" fill="#999999"></path><path d="M384 512l128 0 0 128L384 640 384 512z" p-id="3575" fill="#999999"></path><path d="M192 512l128 0 0 128L192 640 192 512z" p-id="3576" fill="#999999"></path><path d="M192 704l128 0 0 128L192 832 192 704z" p-id="3577" fill="#999999"></path><path d="M384 704l128 0 0 128L384 832 384 704z" p-id="3578" fill="#999999"></path><path d="M576 704l128 0 0 128L576 832 576 704z" p-id="3579" fill="#999999"></path><path d="M768 704l128 0 0 128-128 0L768 704z" p-id="3580" fill="#999999"></path></svg>