<?xml version="1.0" standalone="no"?><!DOCTYPE svg PUBLIC "-//W3C//DTD SVG 1.1//EN" "http://www.w3.org/Graphics/SVG/1.1/DTD/svg11.dtd"><svg t="1494500423511" class="icon" style="" viewBox="0 0 1024 1024" version="1.1" xmlns="http://www.w3.org/2000/svg" p-id="3270" xmlns:xlink="http://www.w3.org/1999/xlink" width="20" height="20"><defs><style type="text/css"></style></defs><path d="M512 992C248 992 32 776 32 512 32 248 248 32 512 32 776 32 992 248 992 512 992 776 776 992 512 992L512 992ZM512 109C288.8 109 109 288.8 109 512 109 735.2 288.8 915 512 915 735.2 915 915 735.2 915 512 915 288.8 735.2 109 512 109L512 109ZM499.035942 827.946029C467.502 827.946029 441.701501 802.14553 441.701501 770.611584 441.701501 739.077642 467.502 713.277139 499.035942 713.277139 530.569888 713.277139 556.370387 739.077642 556.370387 770.611584 556.370387 802.14553 530.569888 827.946029 499.035942 827.946029ZM348.822186 440.047245C310.168936 440.047245 308.347951 408.365354 308.399521 407.02089 309.910045 368.495837 315.151401 339.365174 324.141414 319.172155 333.484182 298.186789 348.432387 279.440144 368.98648 262.931656 389.54057 246.423168 412.430013 234.251839 437.655488 226.417302 462.880963 218.582766 489.507453 214.665556 517.53576 214.665556 574.215226 214.665556 621.395498 229.634893 659.078 259.574014 696.760499 289.513136 715.601469 329.384733 715.601469 379.19 715.601469 401.57439 710.774442 421.859939 701.12025 440.047254 691.466054 458.234573 670.912272 480.898429 639.458282 508.039501 608.004294 535.180573 587.139091 554.486819 576.862045 565.958819 566.584998 577.430819 561.335482 583.493373 554.178093 596.766272 547.020704 610.039174 545.301923 611.823984 538.898368 629.29823 532.494816 646.772477 517.535763 657.062416 497.916038 657.062416 478.29631 657.062416 461.803235 637.68249 461.803235 622.885459 461.803235 608.088429 458.692547 605.08945 471.536986 583.162528 481.614637 565.958829 486.70472 561.06233 497.916045 547.072086 509.127366 533.08184 529.369728 512.516493 558.643738 485.375418 587.917747 458.234346 612.138474 441.666758 620.546963 429.355344 628.955456 417.04393 639.458275 397.172093 639.458275 372.829069 639.458275 348.486045 627.742816 326.188883 599.612435 308.837052 571.482054 291.485223 550.512291 287.967823 505.667229 287.967822 460.82217 287.967821 391.057168 322.051946 390.480842 409.235635 390.476774 409.850784 390.474739 410.468106 390.474739 411.087597 390.474739 411.087597 387.475434 440.047245 348.822186 440.047245Z" p-id="3271" fill="#ffffff"></path></svg>