<?xml version="1.0" standalone="no"?><!DOCTYPE svg PUBLIC "-//W3C//DTD SVG 1.1//EN" "http://www.w3.org/Graphics/SVG/1.1/DTD/svg11.dtd"><svg t="1493274544093" class="icon" style="" viewBox="0 0 1024 1024" version="1.1" xmlns="http://www.w3.org/2000/svg" p-id="2951" xmlns:xlink="http://www.w3.org/1999/xlink" width="32" height="32"><defs><style type="text/css"></style></defs><path d="M512.096191 62.940494c-247.090585 0-448.098621 201.008037-448.098621 448.098621 0 247.097748 201.008037 448.105784 448.098621 448.105784 247.097748 0 448.105784-201.008037 448.105784-448.105784C960.201975 263.948531 759.193939 62.940494 512.096191 62.940494L512.096191 62.940494zM512.096191 882.563734c-204.858738 0-371.518478-166.692486-371.518478-371.524618 0-204.858738 166.659741-371.518478 371.518478-371.518478 204.832132 0 371.524618 166.659741 371.524618 371.518478C883.620809 715.871247 716.928323 882.563734 512.096191 882.563734L512.096191 882.563734zM352.305905 511.040139c-17.762549 0-32.135908 14.247492-32.135908 32.010041 0 17.762549 14.373359 32.010041 32.135908 32.010041l192.011128 0c17.733896 0 32.010041-14.246469 32.010041-32.010041L576.327074 287.053762c0-17.72878-14.246469-32.135908-32.010041-32.135908-17.762549 0-32.003901 14.373359-32.003901 32.135908l0 223.985354L352.305905 511.039115 352.305905 511.040139zM672.103418 511.040139" p-id="2952" fill="#999999"></path></svg>