<?xml version="1.0" standalone="no"?><!DOCTYPE svg PUBLIC "-//W3C//DTD SVG 1.1//EN" "http://www.w3.org/Graphics/SVG/1.1/DTD/svg11.dtd"><svg t="1493192957805" class="icon" style="" viewBox="0 0 1098 1024" version="1.1" xmlns="http://www.w3.org/2000/svg" p-id="2524" xmlns:xlink="http://www.w3.org/1999/xlink" width="34.3125" height="32"><defs><style type="text/css"></style></defs><path d="M329.667438 566.648795C328.981797 567.53242 328.288768 568.450033 327.982885 569.564167L274.764434 764.663501C271.659959 776.023552 274.845769 788.259833 283.249006 796.889212 289.540827 803.030257 297.830327 806.406649 306.648869 806.406649 309.564197 806.406649 312.485522 806.06088 315.359525 805.292515L509.074286 752.46121C509.384558 752.46121 509.54123 752.727179 509.765851 752.727179 511.994075 752.727179 514.182437 751.924824 515.832978 750.232934L1033.823305 232.312057C1049.211392 216.912165 1057.650176 195.925336 1057.650176 173.09146 1057.650176 147.215148 1046.678747 121.356559 1027.457682 102.19313L978.539154 53.194803C959.353563 33.973745 933.455067 22.978677 907.596434 22.978677 884.772937 22.978677 863.780206 31.423356 848.358107 46.787789L330.435803 564.849042C329.899374 565.339611 330.054583 566.072517 329.667438 566.648795L329.667438 566.648795ZM983.140498 181.592291 931.693714 233.003593 848.28277 148.271653 899.006976 97.547454C907.024603 89.494352 922.563438 90.666116 931.769051 99.907233L980.721591 148.90556C985.829742 154.00783 988.745143 160.796072 988.745143 167.508963 988.709669 173.022018 986.747392 178.009029 983.140498 181.592291L983.140498 181.592291ZM421.788965 574.781689 795.560814 200.986229 879.013157 285.777269 505.934336 658.84574 421.788965 574.781689 421.788965 574.781689ZM353.684846 726.332211 380.69899 627.191874 452.749824 699.244237 353.684846 726.332211 353.684846 726.332211ZM1015.948361 386.840013C996.340151 386.840013 980.265033 402.782201 980.191159 422.654888L980.191159 905.523346C980.191159 930.851474 959.625435 951.417198 934.263296 951.417198L117.42603 951.417198C92.103826 951.417198 71.456841 930.851474 71.456841 905.523346L71.456841 117.384682C71.456841 92.040309 92.097975 71.456878 117.42603 71.456878L643.515319 71.456878C663.232805 71.456878 679.238583 55.439331 679.238583 35.717354 679.238583 16.039709 663.232805 0 643.515319 0L111.976521 0C50.245413 0 0 50.204072 0 111.976543L0 910.978779C0 972.743826 50.245413 1022.931675 111.976521 1022.931675L939.671479 1022.931675C1001.44245 1022.931675 1051.665701 972.749751 1051.665701 910.978779L1051.665701 422.424379C1051.590363 402.782201 1035.555109 386.840013 1015.948361 386.840013L1015.948361 386.840013Z" p-id="2525"></path></svg>