<?xml version="1.0" standalone="no"?><!DOCTYPE svg PUBLIC "-//W3C//DTD SVG 1.1//EN" "http://www.w3.org/Graphics/SVG/1.1/DTD/svg11.dtd"><svg t="1494988651138" class="icon" style="" viewBox="0 0 1024 1024" version="1.1" xmlns="http://www.w3.org/2000/svg" p-id="6276" xmlns:xlink="http://www.w3.org/1999/xlink" width="24" height="24"><defs><style type="text/css"></style></defs><path d="M785.457 947.702c-12.202 0-23.945-3.537-33.972-10.233l-32.347-21.233c-1.648-0.893-4.029-2.346-6.41-4.613l-18.795-12.659c-72.477 9.832-143.169-2.449-205.069-35.678-11.4-6.124-15.681-20.34-9.546-31.74a23.402 23.402 0 0 1 31.752-9.558c55.354 29.726 119.223 39.878 184.672 29.314 5.86-0.95 11.904 0.389 16.826 3.697l28.844 19.401c0.961 0.652 1.9 1.385 2.77 2.175l33.171 21.794c4.372 2.942 9.111 3.239 16.368 0.904 4.143-2.907 6.57-7.371 6.57-12.236v-59.772a23.446 23.446 0 0 1 10.37-19.458c65.083-43.701 103.931-112.275 103.931-183.436 0-16.734-1.9-33.045-5.632-48.486-3.365-13.77-8.47-27.711-15.109-41.401-5.654-11.641-0.801-25.674 10.851-31.328 11.675-5.643 25.662-0.801 31.317 10.84 8.104 16.666 14.308 33.755 18.497 50.798 4.624 19.104 6.959 39.134 6.959 59.577 0 82.893-42.488 162.432-114.301 215.073v47.593c0 22.206-12.202 42.877-31.843 53.957a22.918 22.918 0 0 1-3.48 1.614c-9.385 3.423-18.015 5.094-26.394 5.094z m-36.192-64.373c0 0.011 0.023 0.023 0.023 0.034 0-0.011-0.023-0.023-0.023-0.034z m-8.173-8.516z m-458.945-17.81c-10.233 0-20.466-2.621-29.554-7.589-19.39-10.084-32.164-31.214-32.164-53.602v-76.575c-98.071-67.498-156.217-172.23-156.217-282.56 0-197.366 181.971-357.933 405.629-357.933 223.681 0 405.652 160.567 405.652 357.933S693.522 794.61 469.841 794.61c-22.16 0-44.846-1.728-67.532-5.139l-36.147 23.934c-1.74 1.442-3.274 2.427-4.327 3.09l-46.838 30.87c-8.721 6.089-20.58 9.638-32.85 9.638z m187.694-731.375c-197.813 0-358.745 139.54-358.745 311.049 0 98.265 54.369 191.826 145.435 250.27a23.434 23.434 0 0 1 10.782 19.733v89.131c0 4.956 3.022 9.981 7.326 12.236 6.044 3.297 12.476 1.58 14.033 0.527l46.632-30.767c0.71-0.446 1.007-0.641 1.053-0.641 0 0 0 0.023-0.023 0.057a21.017 21.017 0 0 1 2.587-2.003l45.098-29.886a23.55 23.55 0 0 1 16.895-3.571c23.19 3.96 46.38 5.963 68.929 5.963 197.835 0 358.768-139.54 358.768-311.049s-160.934-311.049-358.77-311.049zM335.326 778.15c0 0.011-0.023 0.023-0.023 0.034 0-0.011 0.023-0.022 0.023-0.034z" p-id="6277" fill="#999999"></path><path d="M365.53 433.431c0 22.038-17.978 40.017-40.016 40.017s-40.017-17.979-40.017-40.017 17.979-40.016 40.017-40.016 40.016 17.978 40.016 40.016z m147.308 7.659c0 19.923-16.253 36.176-36.176 36.176-19.923 0-36.175-16.253-36.175-36.176 0-19.923 16.252-36.175 36.175-36.175s36.176 16.252 36.176 36.175z m133.168 0c0 19.923-16.253 36.176-36.175 36.176-19.923 0-36.176-16.253-36.176-36.176 0-19.923 16.253-36.175 36.176-36.175 19.921 0 36.175 16.252 36.175 36.175z" p-id="6278" fill="#999999"></path></svg>