<?xml version="1.0" standalone="no"?><!DOCTYPE svg PUBLIC "-//W3C//DTD SVG 1.1//EN" "http://www.w3.org/Graphics/SVG/1.1/DTD/svg11.dtd"><svg t="1494326898914" class="icon" style="" viewBox="0 0 1047 1024" version="1.1" xmlns="http://www.w3.org/2000/svg" p-id="29138" xmlns:xlink="http://www.w3.org/1999/xlink" width="32.71875" height="32"><defs><style type="text/css"></style></defs><path d="M523.636364 1024.011636c-288.733091 0-523.636364-233.797818-523.636364-521.157818C0 272.861091 154.728727 67.153455 376.285091 2.618182a17.105455 17.105455 0 1 1 9.658182 32.849454C178.955636 95.767273 34.385455 287.953455 34.385455 502.853818 34.385455 771.351273 253.858909 989.789091 523.636364 989.789091s489.250909-218.437818 489.250909-486.935273c0-213.899636-137.634909-400.628364-342.504728-464.651636a17.105455 17.105455 0 0 1-11.252363-21.457455 17.221818 17.221818 0 0 1 21.550545-11.194182C899.956364 74.065455 1047.272727 273.92 1047.272727 502.853818c0 287.36-234.903273 521.157818-523.636363 521.157818z m-11.682909-377.972363c45.952 0 92.322909 37.736727 92.322909 122.065454 0 75.496727-77.381818 154.705455-80.674909 158.033455a16.372364 16.372364 0 0 1-23.296 0c-3.304727-3.328-80.663273-82.536727-80.663273-158.033455 0-84.328727 46.370909-122.065455 92.311273-122.065454z m-0.011637 244.596363c20.235636-23.714909 59.741091-75.973818 59.741091-122.530909 0-54.539636-23.458909-89.774545-59.729454-89.774545-36.282182 0-59.717818 35.234909-59.717819 89.774545 0 46.685091 39.470545 98.850909 59.706182 122.530909z m0.011637-578.536727c58.693818 0 106.437818 47.290182 106.437818 105.425455s-47.744 105.425455-106.437818 105.425454c-58.693818 0-106.449455-47.290182-106.449455-105.425454s47.755636-105.425455 106.449455-105.425455z m0 178.571636c40.727273 0 73.844364-32.814545 73.844363-73.146181 0-40.331636-33.117091-73.134545-73.844363-73.134546s-73.844364 32.802909-73.844364 73.134546 33.117091 73.146182 73.844364 73.146181z m161.163636 107.333819c60.485818 19.584 94.743273 49.629091 94.743273 83.758545 0 8.913455-7.296 16.139636-16.290909 16.139636a16.221091 16.221091 0 0 1-16.302546-16.139636c0-20.619636-34.536727-43.275636-87.970909-57.716364a16.267636 16.267636 0 0 1-10.333091-8.448 15.988364 15.988364 0 0 1-0.442182-13.27709c20.596364-49.547636 31.488-108.264727 31.488-169.797819 0-133.166545-120.029091-247.738182-156.055272-279.109818C475.927273 184.785455 355.898182 299.357091 355.898182 432.523636c0 61.533091 10.88 120.250182 31.488 169.797819 1.780364 4.282182 1.629091 9.111273-0.442182 13.27709a16.267636 16.267636 0 0 1-10.333091 8.448c-53.434182 14.440727-87.959273 37.096727-87.959273 57.716364 0 8.913455-7.307636 16.139636-16.302545 16.139636s-16.290909-7.226182-16.290909-16.139636c0-34.129455 34.257455-64.174545 94.72-83.758545-18.013091-49.664-27.473455-106.472727-27.473455-165.480728 0-171.694545 171.264-307.269818 178.571637-312.948363a16.418909 16.418909 0 0 1 20.154181 0c7.296 5.678545 178.571636 141.253818 178.571637 312.948363 0 59.019636-9.472 115.816727-27.485091 165.480728z" p-id="29139" fill="#999999"></path></svg>