<?xml version="1.0" standalone="no"?><!DOCTYPE svg PUBLIC "-//W3C//DTD SVG 1.1//EN" "http://www.w3.org/Graphics/SVG/1.1/DTD/svg11.dtd"><svg t="1494230979295" class="icon" style="" viewBox="0 0 1027 1024" version="1.1" xmlns="http://www.w3.org/2000/svg" p-id="3747" xmlns:xlink="http://www.w3.org/1999/xlink" width="32.09375" height="32"><defs><style type="text/css"></style></defs><path d="M185.144744 731.46541c15.009855 0 27.146267 12.187577 27.146267 27.102265 0 14.983249-12.136412 27.173896-27.146267 27.173896L81.512479 785.741571c-22.406313 0-42.803875-9.179057-57.597813-23.87578-14.722306-14.770402-23.914666-35.133172-23.914666-57.502645L0 299.05305c0-22.297842 9.19236-42.659589 23.914666-57.42999l0.071631-0.070608 0.071631 0 0.288572-0.286526c14.794961-14.555507 34.974559-23.660886 57.165977-23.660886L312.909639 217.60504c18.888186-36.495192 40.575114-69.619614 65.35345-100.305497 28.152177-34.917254 60.111053-66.463738 96.164177-95.931886 17.018605-13.908778 38.420031-21.366633 58.744939-21.366633 10.556427 0 20.971637 2.007727 30.66644 6.094812 10.19827 4.373611 19.318998 10.898211 26.572192 19.788695 10.486842 12.834306 17.021675 30.112832 17.021675 51.90823l0 847.762113c0 21.86703-6.534833 39.074947-17.021675 51.907207-7.253194 8.891508-16.373922 15.488763-26.572192 19.790742-9.694803 4.085038-20.10899 6.093788-30.66644 6.093788-20.323884 0-41.72531-7.384178-58.744939-21.293979-36.053124-29.53978-68.010977-61.08831-96.164177-96.003518-28.152177-34.918277-52.427046-73.060993-73.03848-115.649973-6.537903-13.481036-0.86367-29.683043 12.638855-36.137035 13.502525-6.522554 29.66053-0.860601 36.196387 12.548804 18.816554 38.862099 40.86471 73.561389 66.432015 105.325837 25.567305 31.688723 54.867632 60.58382 88.336908 87.902002 7.18054 5.877871 16.084327 9.031701 24.343431 9.031701 3.592828 0 6.822382-0.500397 9.480932-1.647523 2.155083-0.932232 4.16588-2.366907 5.744841-4.231371 2.87242-3.584642 4.6673-9.320273 4.6673-17.635659L553.065278 77.791737c0-8.316409-1.794879-14.052041-4.6673-17.566074-1.578961-1.936095-3.589758-3.368724-5.744841-4.300956-2.65855-1.076518-5.888104-1.64957-9.480932-1.64957-8.259104 0-17.162892 3.154853-24.343431 9.032724-33.469276 27.317159-62.768579 56.283888-88.336908 87.902002-25.209148 31.260981-46.970778 65.460898-65.642023 103.603613-3.947915 10.038634-13.787004 17.064654-25.207102 17.064654L81.512479 271.878131c-7.470135 0-14.291494 3.01159-19.175735 7.887644l-0.071631 0.143263c-4.883217 4.802376-7.899924 11.614525-7.899924 19.142989l0 405.310096c0 7.386224 3.087315 14.196327 7.971555 19.145036 4.955872 4.875031 11.778254 7.957229 19.175735 7.957229L185.144744 731.464387zM719.394491 644.279722c-15.010879 0-27.220968-12.116969-27.220968-27.100218 0-14.986319 12.21009-27.173896 27.220968-27.173896 24.417109 0 46.537919-9.895371 62.552661-25.883507 16.015765-15.918551 25.925463-38.072107 25.925463-62.450331 0-24.3772-9.909697-46.460148-25.925463-62.448284-16.014742-15.989159-38.135552-25.882484-62.552661-25.882484-15.010879 0-27.220968-12.189623-27.220968-27.173896 0-14.913665 12.21009-27.101241 27.220968-27.101241 39.427988 0 75.120908 15.988136 100.975762 41.798988s41.86755 61.445444 41.86755 100.806917c0 39.36352-16.012695 75.069743-41.86755 100.879572C794.515399 628.29261 758.823502 644.279722 719.394491 644.279722L719.394491 644.279722zM721.046107 806.962895c-15.008832 0-27.218922-12.116969-27.218922-27.102265 0-14.983249 12.21009-27.173896 27.218922-27.173896 69.447698 0 132.287909-28.105105 177.819918-73.489758 45.460378-45.455261 73.612555-108.192118 73.612555-177.525206 0-69.331042-28.152177-132.067898-73.612555-177.524183-45.530986-45.384653-108.371196-73.489758-177.819918-73.489758-15.008832 0-27.218922-12.189623-27.218922-27.173896 0-14.913665 12.21009-27.101241 27.218922-27.101241 84.458577 0 160.871921 34.198893 216.240973 89.408309 55.299467 55.277978 89.557712 131.637086 89.557712 215.881792 0 84.316338-34.258245 160.675446-89.557712 215.883839C881.918028 772.835633 805.504684 806.962895 721.046107 806.962895L721.046107 806.962895zM24.345478 241.264902c10.628058-10.253528 27.577079-10.109242 37.990243 0.358157" p-id="3748" fill="#999999"></path></svg>