<?xml version="1.0" standalone="no"?><!DOCTYPE svg PUBLIC "-//W3C//DTD SVG 1.1//EN" "http://www.w3.org/Graphics/SVG/1.1/DTD/svg11.dtd"><svg t="1494230909993" class="icon" style="" viewBox="0 0 1025 1024" version="1.1" xmlns="http://www.w3.org/2000/svg" p-id="2860" xmlns:xlink="http://www.w3.org/1999/xlink" width="32.03125" height="32"><defs><style type="text/css"></style></defs><path d="M925.533091 190.370909l-35.84 0c18.176-30.836364 26.158545-60.229818 23.598545-87.528727-2.094545-22.807273-12.916364-55.458909-52.549818-81.477818-32.907636-21.620364-75.170909-26.926545-122.065455-15.220364-76.101818 19.083636-166.097455 84.736-225.303273 164.096-59.205818-79.36-149.154909-144.989091-225.233455-164.096-46.941091-11.799273-89.204364-6.446545-122.135273 15.220364C126.394182 47.383273 115.595636 80.011636 113.454545 102.818909 110.917818 130.117818 118.807273 159.511273 137.099636 190.370909L101.213091 190.370909c-54.295273 0-98.490182 44.241455-98.490182 98.56l0 126.952727c0 42.984727 28.346182 80.965818 69.352727 93.742545-3.886545 10.798545-5.957818 21.946182-5.957818 33.233455l0 380.858182c0 54.318545 44.264727 98.536727 98.56 98.536727l697.437091 0c54.318545 0 98.466909-44.218182 98.466909-98.536727L960.581818 542.859636c0-11.357091-1.954909-22.574545-5.841455-33.303273C995.723636 496.756364 1024 458.752 1024 415.883636l0-126.929455C1024 234.635636 979.851636 190.370909 925.533091 190.370909M877.405091 975.453091l-347.229091 0L530.176 491.077818l347.229091 0c17.291636 0 31.325091 14.103273 31.325091 31.441455l0 421.562182C908.730182 961.419636 894.696727 975.453091 877.405091 975.453091M551.400727 190.370909c64.977455-74.914909 150.178909-133.794909 219.461818-151.179636 35.933091-9.006545 65.373091-6.516364 86.667636 7.517091 22.667636 14.871273 26.670545 28.136727 27.578182 38.144 3.607273 36.724364-35.770182 86.225455-54.411636 105.518545L551.400727 190.370909 551.400727 190.370909zM972.148364 269.079273l0 149.992727c0 18.478545-13.777455 33.489455-30.813091 33.489455L530.059636 452.561455l0-216.994909 411.275636 0C958.370909 235.566545 972.148364 250.624 972.148364 269.079273M484.142545 492.008727l0 482.536727L149.108364 974.545455c-16.756364 0-30.301091-14.010182-30.301091-31.232L118.807273 523.287273c0-17.221818 13.568-31.278545 30.301091-31.278545L484.142545 492.008727 484.142545 492.008727zM147.805091 86.784c0.907636-9.821091 4.887273-22.853818 26.996364-37.445818 20.805818-13.777455 49.664-16.314182 85.154909-7.354182 67.560727 16.965818 151.179636 74.728727 215.063273 148.386909L201.122909 190.370909C184.738909 173.800727 144.197818 123.694545 147.805091 86.784M56.343273 269.707636c0-18.338909 13.358545-33.256727 29.858909-33.256727l396.916364 0 0 215.179636L86.202182 451.630545c-16.500364 0-29.858909-14.894545-29.858909-33.210182L56.343273 269.707636 56.343273 269.707636zM72.866909 288.977455" p-id="2861" fill="#999999"></path></svg>