<?xml version="1.0" standalone="no"?><!DOCTYPE svg PUBLIC "-//W3C//DTD SVG 1.1//EN" "http://www.w3.org/Graphics/SVG/1.1/DTD/svg11.dtd"><svg t="1494233859510" class="icon" style="" viewBox="0 0 1024 1024" version="1.1" xmlns="http://www.w3.org/2000/svg" p-id="6778" xmlns:xlink="http://www.w3.org/1999/xlink" width="32" height="32"><defs><style type="text/css"></style></defs><path d="M282.819048 95.085714c-109.714286 0-199.92381 90.209524-199.92381 199.92381 0 109.714286 90.209524 199.92381 199.92381 199.92381l199.92381 0 0-199.92381C480.304762 185.295238 392.533333 95.085714 282.819048 95.085714L282.819048 95.085714M419.352381 431.542857l-138.971429 0c-75.580952 0-138.971429-60.952381-138.971429-138.971429 0-75.580952 60.952381-138.971429 138.971429-138.971429 75.580952 0 138.971429 60.952381 138.971429 138.971429L419.352381 431.542857 419.352381 431.542857M941.104762 295.009524c0-109.714286-90.209524-199.92381-199.92381-199.92381s-199.92381 90.209524-199.92381 199.92381l0 199.92381 199.92381 0C853.333333 492.495238 941.104762 404.72381 941.104762 295.009524L941.104762 295.009524M604.647619 295.009524c0-75.580952 60.952381-138.971429 138.971429-138.971429 75.580952 0 138.971429 60.952381 138.971429 138.971429 0 75.580952-60.952381 138.971429-138.971429 138.971429l-138.971429 0L604.647619 295.009524 604.647619 295.009524M82.895238 753.371429c0 109.714286 90.209524 199.92381 199.92381 199.92381 109.714286 0 199.92381-90.209524 199.92381-199.92381l0-199.92381-199.92381 0C170.666667 555.885714 82.895238 643.657143 82.895238 753.371429L82.895238 753.371429M419.352381 753.371429c0 75.580952-60.952381 138.971429-138.971429 138.971429-75.580952 0-138.971429-60.952381-138.971429-138.971429 0-75.580952 60.952381-138.971429 138.971429-138.971429l138.971429 0L419.352381 753.371429 419.352381 753.371429M741.180952 555.885714l-199.92381 0 0 199.92381c0 109.714286 90.209524 199.92381 199.92381 199.92381s199.92381-90.209524 199.92381-199.92381S853.333333 555.885714 741.180952 555.885714L741.180952 555.885714M741.180952 892.342857c-75.580952 0-138.971429-60.952381-138.971429-138.971429l0-138.971429 138.971429 0c75.580952 0 138.971429 60.952381 138.971429 138.971429C880.152381 831.390476 819.2 892.342857 741.180952 892.342857L741.180952 892.342857M741.180952 892.342857" p-id="6779" fill="#999999"></path></svg>