<?xml version="1.0" standalone="no"?><!DOCTYPE svg PUBLIC "-//W3C//DTD SVG 1.1//EN" "http://www.w3.org/Graphics/SVG/1.1/DTD/svg11.dtd"><svg t="1493288223046" class="icon" style="" viewBox="0 0 1024 1024" version="1.1" xmlns="http://www.w3.org/2000/svg" p-id="18603" xmlns:xlink="http://www.w3.org/1999/xlink" width="32" height="32"><defs><style type="text/css"></style></defs><path d="M864 736C811.008 736 768 692.992 768 640L768 512C768 470.336 794.88 435.712 832 422.464L832 416C832 239.296 688.704 96 512 96 335.296 96 192 239.296 192 416L192 422.464C229.12 435.712 256 470.336 256 512L256 640C256 692.992 212.992 736 160 736 107.008 736 64 692.992 64 640L64 512C64 470.336 90.88 435.712 128 422.464L128 416C128 203.904 299.904 32 512 32 724.096 32 896 203.904 896 416L896 422.464C933.12 435.712 960 470.336 960 512L960 640C960 692.992 916.992 736 864 736ZM160 480C142.336 480 128 494.336 128 512L128 640C128 657.664 142.336 672 160 672 177.664 672 192 657.664 192 640L192 512C192 494.336 177.664 480 160 480ZM896 512C896 494.336 881.664 480 864 480 846.336 480 832 494.336 832 512L832 640C832 657.664 846.336 672 864 672 881.664 672 896 657.664 896 640L896 512ZM608 992 480 992C462.336 992 448 977.664 448 960L448 896C448 878.336 462.336 864 480 864L608 864C625.664 864 640 878.336 640 896L640 925.248C748.416 911.808 832 832.64 832 736L864 736 896 736C896 877.376 767.04 992 608 992Z" p-id="18604"></path></svg>