<?xml version="1.0" standalone="no"?><!DOCTYPE svg PUBLIC "-//W3C//DTD SVG 1.1//EN" "http://www.w3.org/Graphics/SVG/1.1/DTD/svg11.dtd"><svg t="1497158712200" class="icon" style="" viewBox="0 0 1024 1024" version="1.1" xmlns="http://www.w3.org/2000/svg" p-id="2417" xmlns:xlink="http://www.w3.org/1999/xlink" width="48" height="48"><defs><style type="text/css"></style></defs><path d="M928.16687 1024 95.83313 1024 95.83313 0l167.693776 128.66748 117.703761-115.261067 116.226784 113.840896 119.010318-113.159214 126.395207 115.601908 185.417508-126.849662L928.280484 1024zM138.438256 981.394874l747.123488 0L885.561744 83.562854l-146.561633 100.377677L616.97903 72.3151 496.946189 186.383224 381.17386 72.996782 266.878509 184.963053 138.438256 86.403195 138.438256 981.394874z" p-id="2418"></path><path d="M263.072451 518.873627l180.020859 0c12.611117-16.644403 23.51803-34.084101 32.777544-52.205481L295.338733 466.668146 295.338733 428.891601l107.251304 0C379.583269 406.680129 356.974148 385.604793 334.762676 365.55198l27.210474-29.482747c25.563076 21.132142 49.649173 42.264285 72.258294 63.339621L406.452901 428.891601l87.255298 0C506.26251 397.818263 516.601354 364.30223 524.781538 328.343504l42.832353 8.350605c-8.521025 32.607123-18.178187 63.339621-28.914679 92.254299l114.465772 0-26.131144-26.131144c25.165428-22.949961 46.865639-45.161433 65.043826-66.691224l33.91368 27.210474c-18.519028 18.916676-41.298569 40.787307-68.338622 65.555087l119.464773 0 0 37.776545-253.926551 0C514.953955 484.448685 505.3536 501.888383 494.219461 518.873627l311.131033 0 0 37.776545-153.321647 0c40.7305 41.866637 93.844891 68.90669 159.456785 81.176967-11.077333 13.292799-22.268279 27.437701-33.345612 42.207478-73.735271-24.086098-132.587152-65.157439-176.669256-123.384445L465.87285 556.650172c-43.002774 51.126151-101.513813 96.287585-175.589926 135.597914-10.395651-13.292799-21.302563-25.563076-32.777544-36.697215 61.521802-26.301564 112.079885-59.249528 151.674248-98.900699L263.072451 556.650172 263.072451 518.873627zM356.462887 657.823144l118.896705 0c3.351603-20.734495 6.078331-43.854876 8.350605-69.474759l43.343615 0c-2.556308 25.165428-5.339842 48.342616-8.350605 69.474759l190.530123 0c-3.351603 60.726506-6.6464 104.638189-9.998003 131.678243-6.248752 52.603129-36.526795 79.075114-90.550094 79.415955-28.17619 0.340841-62.08987 0.170421-101.684234-0.568068-1.874626-14.485743-4.65816-29.482747-8.293798-44.991013 42.207478 2.215467 77.030068 3.351603 104.410962 3.351603 31.130145 0 49.081105-14.485743 53.909686-43.400422 3.294796-22.893154 5.907911-52.205481 7.782536-87.766559L511.431932 695.542883c-22.552313 86.346389-91.118163 148.322645-205.527127 186.09919-8.521025-12.213469-17.666926-24.654166-27.210474-37.208477 104.80861-32.209475 167.580162-81.801842 188.314657-148.890713L356.462887 695.542883 356.462887 657.823144z" p-id="2419"></path></svg>