<?xml version="1.0" standalone="no"?><!DOCTYPE svg PUBLIC "-//W3C//DTD SVG 1.1//EN" "http://www.w3.org/Graphics/SVG/1.1/DTD/svg11.dtd"><svg t="1492134320532" class="icon" style="" viewBox="0 0 1024 1024" version="1.1" xmlns="http://www.w3.org/2000/svg" p-id="2552" xmlns:xlink="http://www.w3.org/1999/xlink" width="20" height="20"><defs><style type="text/css"></style></defs><path d="M511.998561 65.328899c-246.688545 0-446.669558 199.980014-446.669558 446.669558s199.981013 446.669558 446.669558 446.669558 446.669558-199.981013 446.669558-446.669558S758.688105 65.328899 511.998561 65.328899zM453.04733 734.093077c-44.97111 44.97031-118.142699 44.97031-163.144188-0.032178-44.97111-44.97011-44.97111-118.142699 0-163.11201l115.56025-115.56005c44.97111-44.97031 118.142699-44.97031 163.144188 0.032178 1.216575 1.216575 2.387781 2.460931 3.537402 3.717879 0.673543 0.556423 1.3275 1.147022 1.958072 1.776795 1.817768 1.817768 3.320349 3.826805 4.525532 5.960159 0.145701 0.190271 0.300196 0.376145 0.443899 0.566216-0.027781 0.025982-0.056162 0.052764-0.083943 0.077747 5.533848 10.440921 3.906351 23.681144-4.885488 32.472184-8.856995 8.856995-22.229528 10.439122-32.706225 4.754976-0.726308 0.76648-7.969996-6.449627-11.819187-10.297818l-0.032178-0.031179c-23.486476-23.486476-61.378186-23.674149-84.86666-0.187473l-115.745125 115.748523c-23.486476 23.486476-23.486476 61.566658 0 85.053334l0.032178 0.032178c23.486476 23.486476 61.566658 23.486476 85.053334 0l69.680557-69.680557c24.187801 11.874549 52.62572 12.252293 77.028774 1.030901L453.04733 734.093077zM734.09378 453.047426l-115.558252 115.559251c-44.97111 44.97011-118.142699 44.97011-163.144188-0.032178-1.215776-1.216775-2.387781-2.461131-3.536602-3.717879-0.673543-0.556423-1.3275-1.146023-1.958072-1.776795-1.817768-1.817768-3.320349-3.826805-4.525532-5.960159-0.145701-0.190271-0.300196-0.375945-0.444898-0.567215 0.027581-0.025982 0.056162-0.052764 0.083943-0.077747-5.534048-10.440921-3.906351-23.681344 4.885488-32.472184 8.856995-8.856995 22.229728-10.439122 32.706225-4.754976 0.726308-0.76648 7.969996 6.449627 11.819187 10.297818l0.032178 0.032178c23.486476 23.486476 61.378186 23.674149 84.866461 0.187673l115.746724-115.746724c23.486476-23.486476 23.486476-61.566658 0-85.053334l-0.032178-0.032178c-23.486476-23.486476-61.566658-23.486476-85.053334 0l-69.680557 69.680557c-24.110053-11.796802-52.62572-12.252493-77.028774-1.030901l107.679593-107.679593c44.97111-44.97031 118.142699-44.97031 163.144188 0.032178C779.064091 334.904727 779.064091 408.078115 734.09378 453.047426z" p-id="2553" fill="#999999"></path></svg>